AmstelvarA2-Italic_XOLC290.ufo
<glyph name="exclam" format="2">
	<unicode hex="0021"/>
	<advance width="879"/>
	<outline>
		<contour>
			<point x="167" y="124" type="qcurve" smooth="yes"/>
			<point x="167" y="179"/>
			<point x="244" y="260"/>
			<point x="304" y="260" type="qcurve" smooth="yes"/>
			<point x="363" y="260"/>
			<point x="440" y="179"/>
			<point x="440" y="124" type="qcurve" smooth="yes"/>
			<point x="440" y="70"/>
			<point x="363" y="-12"/>
			<point x="304" y="-12" type="qcurve" smooth="yes"/>
			<point x="244" y="-12"/>
			<point x="167" y="70"/>
		</contour>
		<contour>
			<point x="245" y="1310" type="line" smooth="yes"/>
			<point x="246" y="1379"/>
			<point x="401" y="1556"/>
			<point x="564" y="1545" type="qcurve" smooth="yes"/>
			<point x="726" y="1534"/>
			<point x="823" y="1338"/>
			<point x="798" y="1270" type="qcurve" smooth="yes"/>
			<point x="732" y="1089" type="line"/>
			<point x="518" y="794" type="line"/>
			<point x="436" y="592" type="line"/>
			<point x="344" y="599" type="line"/>
			<point x="340" y="808" type="line"/>
			<point x="243" y="1125" type="line"/>
		</contour>
	</outline>
</glyph>
<glyph name="quotedbl" format="2">
	<unicode hex="0022"/>
	<advance width="1440"/>
	<outline>
		<contour>
			<point x="388.0661478599" y="964" type="line"/>
			<point x="279.0661478599" y="1311" type="line" smooth="yes"/>
			<point x="235.0661478599" y="1452"/>
			<point x="404.0661478599" y="1558"/>
			<point x="532.0661478599" y="1558" type="qcurve" smooth="yes"/>
			<point x="678.0661478599" y="1558"/>
			<point x="794.0661478599" y="1438"/>
			<point x="699.0661478599" y="1310" type="qcurve" smooth="yes"/>
			<point x="442.0661478599" y="964" type="line"/>
		</contour>
		<contour>
			<point x="1026" y="964" type="line"/>
			<point x="917" y="1311" type="line" smooth="yes"/>
			<point x="873" y="1452"/>
			<point x="1042" y="1558"/>
			<point x="1170" y="1558" type="qcurve" smooth="yes"/>
			<point x="1316" y="1558"/>
			<point x="1432" y="1438"/>
			<point x="1337" y="1310" type="qcurve" smooth="yes"/>
			<point x="1080" y="964" type="line"/>
		</contour>
	</outline>
</glyph>
<glyph name="numbersign" format="2">
	<unicode hex="0023"/>
	<advance width="1324"/>
	<outline>
		<contour>
			<point x="3" y="147" type="line"/>
			<point x="116" y="652" type="line"/>
			<point x="1132" y="652" type="line"/>
			<point x="1019" y="147" type="line"/>
		</contour>
		<contour>
			<point x="176" y="857" type="line"/>
			<point x="289" y="1362" type="line"/>
			<point x="1305" y="1362" type="line"/>
			<point x="1192" y="857" type="line"/>
		</contour>
		<contour>
			<point x="128" y="22" type="line"/>
			<point x="686" y="1539" type="line"/>
			<point x="785" y="1512" type="line"/>
			<point x="227" y="-5" type="line"/>
		</contour>
		<contour>
			<point x="541" y="22" type="line"/>
			<point x="1099" y="1539" type="line"/>
			<point x="1198" y="1512" type="line"/>
			<point x="640" y="-5" type="line"/>
		</contour>
	</outline>
</glyph>
<glyph name="quotesingle" format="2">
	<unicode hex="0027"/>
	<advance width="792"/>
	<outline>
		<contour>
			<point x="380.0661478599" y="964" type="line"/>
			<point x="271.0661478599" y="1311" type="line" smooth="yes"/>
			<point x="227.0661478599" y="1452"/>
			<point x="396.0661478599" y="1558"/>
			<point x="524.0661478599" y="1558" type="qcurve" smooth="yes"/>
			<point x="670.0661478599" y="1558"/>
			<point x="786.0661478599" y="1438"/>
			<point x="691.0661478599" y="1310" type="qcurve" smooth="yes"/>
			<point x="434.0661478599" y="964" type="line"/>
		</contour>
	</outline>
</glyph>
<glyph name="parenright" format="2">
  <advance width="992"/>
  <unicode hex="0029"/>
  <outline>
    <contour>
      <point x="960.2513652688324" y="484.1661330589439" type="qcurve" smooth="yes"/>
      <point x="901.1019738682919" y="179.86889398709363"/>
      <point x="302.88225419203707" y="-335.78491636710555"/>
      <point x="3.416948184633938" y="-449.6401168417134" type="qcurve"/>
      <point x="-55.0" y="-390.8756245940248" type="line"/>
      <point x="101.79602746096424" y="-250.74572540913294"/>
      <point x="387.31400381282174" y="244.37909694000277"/>
      <point x="441.8543517276057" y="524.9648628374232" type="qcurve" smooth="yes"/>
      <point x="496.3946996423898" y="805.5506287348437"/>
      <point x="404.1177064502589" y="1325.3930990244316"/>
      <point x="310.45873972476767" y="1489.246602528479" type="qcurve"/>
      <point x="389.61638359530536" y="1537.1837395657246" type="line"/>
      <point x="636.4617764736563" y="1380.3329546322582"/>
      <point x="1016.9041914479213" y="775.6196574946446"/>
    </contour>
  </outline>
</glyph>
<glyph name="asterisk" format="2">
	<unicode hex="002A"/>
	<advance width="991"/>
	<outline>
		<contour>
			<point x="420.0144927536" y="697" type="qcurve" smooth="yes"/>
			<point x="334.0144927536" y="719"/>
			<point x="298.0144927536" y="867"/>
			<point x="340.0144927536" y="911" type="qcurve" smooth="yes"/>
			<point x="520.0144927536" y="1099" type="line"/>
			<point x="517.0144927536" y="1101" type="line"/>
			<point x="328.0144927536" y="933" type="line" smooth="yes"/>
			<point x="273.0144927536" y="883"/>
			<point x="136.0144927536" y="928"/>
			<point x="114.0144927536" y="1014" type="qcurve" smooth="yes"/>
			<point x="92.0144927536" y="1095"/>
			<point x="186.0144927536" y="1193"/>
			<point x="260.0144927536" y="1190" type="qcurve" smooth="yes"/>
			<point x="508.0144927536" y="1135" type="line"/>
			<point x="510.0144927536" y="1139" type="line"/>
			<point x="266.0144927536" y="1221" type="line" smooth="yes"/>
			<point x="209.0144927536" y="1240"/>
			<point x="166.0144927536" y="1386"/>
			<point x="230.0144927536" y="1448" type="qcurve" smooth="yes"/>
			<point x="292.0144927536" y="1511"/>
			<point x="436.0144927536" y="1466"/>
			<point x="454.0144927536" y="1408" type="qcurve" smooth="yes"/>
			<point x="532.0144927536" y="1165" type="line"/>
			<point x="537.0144927536" y="1167" type="line"/>
			<point x="487.0144927536" y="1413" type="line" smooth="yes"/>
			<point x="474.0144927536" y="1473"/>
			<point x="577.0144927536" y="1583"/>
			<point x="664.0144927536" y="1559" type="qcurve" smooth="yes"/>
			<point x="749.0144927536" y="1536"/>
			<point x="774.0144927536" y="1395"/>
			<point x="743.0144927536" y="1342" type="qcurve" smooth="yes"/>
			<point x="571.0144927536" y="1157" type="line"/>
			<point x="575.0144927536" y="1154" type="line"/>
			<point x="777.0144927536" y="1329" type="line" smooth="yes"/>
			<point x="832.0144927536" y="1376"/>
			<point x="957.0144927536" y="1321"/>
			<point x="978.0144927536" y="1242" type="qcurve" smooth="yes"/>
			<point x="1000.0144927536" y="1160"/>
			<point x="915.0144927536" y="1063"/>
			<point x="846.0144927536" y="1068" type="qcurve" smooth="yes"/>
			<point x="584.0144927536" y="1120" type="line"/>
			<point x="582.0144927536" y="1116" type="line"/>
			<point x="824.0144927536" y="1032" type="line" smooth="yes"/>
			<point x="881.0144927536" y="1012"/>
			<point x="925.0144927536" y="868"/>
			<point x="860.0144927536" y="805" type="qcurve" smooth="yes"/>
			<point x="798.0144927536" y="743"/>
			<point x="655.0144927536" y="785"/>
			<point x="636.0144927536" y="846" type="qcurve" smooth="yes"/>
			<point x="560.0144927536" y="1091" type="line"/>
			<point x="554.0144927536" y="1089" type="line"/>
			<point x="596.0144927536" y="842" type="line" smooth="yes"/>
			<point x="607.0144927536" y="782"/>
			<point x="506.0144927536" y="673"/>
		</contour>
	</outline>
</glyph>
<glyph name="at" format="2">
	<unicode hex="0040"/>
	<advance width="2349"/>
	<outline>
		<contour>
			<point x="433" y="567" type="qcurve" smooth="yes"/>
			<point x="433" y="811"/>
			<point x="1036" y="1170"/>
			<point x="1329" y="1170" type="qcurve" smooth="yes"/>
			<point x="1345" y="1170"/>
			<point x="1377" y="1164"/>
			<point x="1392" y="1159" type="qcurve"/>
			<point x="1826" y="1210" type="line"/>
			<point x="1868" y="1210" type="line"/>
			<point x="1926" y="1097" type="line"/>
			<point x="1812" y="663" type="line"/>
			<point x="1781" y="492" type="line"/>
			<point x="1786" y="481"/>
			<point x="1814" y="465"/>
			<point x="1848" y="465" type="qcurve" smooth="yes"/>
			<point x="1958" y="465"/>
			<point x="2139" y="667"/>
			<point x="2172" y="837" type="qcurve" smooth="yes"/>
			<point x="2221" y="1089"/>
			<point x="1832" y="1384"/>
			<point x="1309" y="1384" type="qcurve" smooth="yes"/>
			<point x="868" y="1384"/>
			<point x="282" y="1039"/>
			<point x="231" y="737" type="qcurve" smooth="yes"/>
			<point x="181" y="441"/>
			<point x="576" y="99"/>
			<point x="1059" y="99" type="qcurve" smooth="yes"/>
			<point x="1236" y="99"/>
			<point x="1476" y="144"/>
			<point x="1569" y="189" type="qcurve"/>
			<point x="1628" y="108" type="line"/>
			<point x="1545" y="47"/>
			<point x="1230" y="-30"/>
			<point x="1029" y="-30" type="qcurve" smooth="yes"/>
			<point x="530" y="-30"/>
			<point x="17" y="391"/>
			<point x="81" y="725" type="qcurve" smooth="yes"/>
			<point x="154" y="1103"/>
			<point x="834" y="1520"/>
			<point x="1335" y="1520" type="qcurve"/>
			<point x="1833" y="1520"/>
			<point x="2387" y="1180"/>
			<point x="2320" y="832" type="qcurve" smooth="yes"/>
			<point x="2280" y="625"/>
			<point x="1971" y="354"/>
			<point x="1712" y="354" type="qcurve" smooth="yes"/>
			<point x="1489" y="354"/>
			<point x="1311" y="446"/>
			<point x="1298" y="507" type="qcurve"/>
			<point x="1131" y="411"/>
			<point x="878" y="356"/>
			<point x="770" y="356" type="qcurve" smooth="yes"/>
			<point x="580" y="356"/>
			<point x="433" y="478"/>
		</contour>
		<contour>
			<point x="890" y="609" type="qcurve" smooth="yes"/>
			<point x="890" y="548"/>
			<point x="949" y="467"/>
			<point x="1012" y="467" type="qcurve" smooth="yes"/>
			<point x="1120" y="467"/>
			<point x="1322" y="620"/>
			<point x="1355" y="763" type="qcurve" smooth="yes"/>
			<point x="1410" y="1003" type="line"/>
			<point x="1407" y="1036"/>
			<point x="1338" y="1057"/>
			<point x="1300" y="1057" type="qcurve" smooth="yes"/>
			<point x="1117" y="1057"/>
			<point x="890" y="799"/>
		</contour>
	</outline>
</glyph>
<glyph name="bracketleft" format="2">
  <advance width="980"/>
  <unicode hex="005B"/>
  <outline>
    <contour>
      <point x="120" y="508" type="line"/>
      <point x="274" y="1362" type="line"/>
      <point x="259" y="1382" type="line"/>
      <point x="282" y="1500" type="line"/>
      <point x="1084" y="1500" type="line"/>
      <point x="1060" y="1381" type="line"/>
      <point x="798" y="1362" type="line"/>
      <point x="620" y="508" type="line"/>
      <point x="467" y="-342" type="line"/>
      <point x="722" y="-361" type="line"/>
      <point x="699" y="-480" type="line"/>
      <point x="-103" y="-480" type="line"/>
      <point x="-80" y="-362" type="line"/>
      <point x="-57" y="-342" type="line"/>
    </contour>
  </outline>
</glyph>
<glyph name="bracketright" format="2">
	<unicode hex="005D"/>
	<advance width="980"/>
	<outline>
		<contour>
			<point x="-215" y="-480" type="line"/>
			<point x="-192" y="-361" type="line"/>
			<point x="71" y="-342" type="line"/>
			<point x="248" y="508" type="line"/>
			<point x="402" y="1362" type="line"/>
			<point x="146" y="1381" type="line"/>
			<point x="170" y="1500" type="line"/>
			<point x="972" y="1500" type="line"/>
			<point x="949" y="1382" type="line"/>
			<point x="926" y="1362" type="line"/>
			<point x="748" y="508" type="line"/>
			<point x="595" y="-342" type="line"/>
			<point x="610" y="-362" type="line"/>
			<point x="587" y="-480" type="line"/>
		</contour>
	</outline>
</glyph>
<glyph name="asciicircum" format="2">
  <advance width="1317"/>
  <unicode hex="005E"/>
  <outline>
    <contour>
      <point x="156" y="926" type="line"/>
      <point x="222" y="988"/>
      <point x="764" y="1501"/>
      <point x="788" y="1524" type="qcurve"/>
      <point x="805" y="1501"/>
      <point x="1182" y="989"/>
      <point x="1228" y="927" type="qcurve"/>
      <point x="1134" y="829" type="line"/>
      <point x="1000" y="907"/>
      <point x="760" y="1047"/>
      <point x="725" y="1067" type="qcurve"/>
      <point x="666" y="1038"/>
      <point x="404" y="911"/>
      <point x="239" y="831" type="qcurve"/>
    </contour>
  </outline>
</glyph>
<glyph name="a" format="2">
  <advance width="1895"/>
  <unicode hex="0061"/>
  <anchor x="784.0" y="0" name="bottom"/>
  <anchor x="1582" y="0" name="ogonek"/>
  <anchor x="1047.0" y="1000" name="top"/>
  <outline>
    <contour>
      <point x="-6" y="248" type="qcurve" smooth="yes"/>
      <point x="-6" y="548"/>
      <point x="711" y="991"/>
      <point x="1077" y="991" type="qcurve" smooth="yes"/>
      <point x="1095" y="991"/>
      <point x="1150" y="978"/>
      <point x="1170" y="967" type="qcurve"/>
      <point x="1660" y="1020" type="line"/>
      <point x="1706" y="1020" type="line"/>
      <point x="1752" y="837" type="line"/>
      <point x="1645" y="367" type="line"/>
      <point x="1615" y="213" type="line"/>
      <point x="1614" y="145"/>
      <point x="1625" y="80"/>
      <point x="1650" y="18" type="qcurve"/>
      <point x="1075" y="-9" type="line"/>
      <point x="1048" y="35"/>
      <point x="1030" y="129"/>
      <point x="1034" y="183" type="qcurve"/>
      <point x="918" y="96"/>
      <point x="542" y="-10"/>
      <point x="382" y="-10" type="qcurve" smooth="yes"/>
      <point x="176" y="-10"/>
      <point x="-6" y="139"/>
    </contour>
    <contour>
      <point x="598" y="300" type="qcurve" smooth="yes"/>
      <point x="598" y="225"/>
      <point x="662" y="127"/>
      <point x="731" y="127" type="qcurve" smooth="yes"/>
      <point x="849" y="127"/>
      <point x="1070" y="314"/>
      <point x="1106" y="491" type="qcurve" smooth="yes"/>
      <point x="1166" y="786" type="line"/>
      <point x="1163" y="826"/>
      <point x="1087" y="852"/>
      <point x="1046" y="852" type="qcurve" smooth="yes"/>
      <point x="846" y="852"/>
      <point x="598" y="533"/>
    </contour>
  </outline>
</glyph>
<glyph name="b" format="2">
	<unicode hex="0062"/>
	<advance width="1893"/>
	<outline>
		<contour>
			<point x="48.007518797" y="241" type="qcurve" smooth="yes"/>
			<point x="122.007518797" y="633" type="line"/>
			<point x="269.007518797" y="1410" type="line"/>
			<point x="135.007518797" y="1502" type="line"/>
			<point x="163.007518797" y="1574" type="line"/>
			<point x="793.007518797" y="1608" type="line"/>
			<point x="880.007518797" y="1538" type="line"/>
			<point x="698.007518797" y="601" type="line"/>
			<point x="626.007518797" y="227" type="line" smooth="yes"/>
			<point x="614.007518797" y="165"/>
			<point x="648.007518797" y="116"/>
			<point x="695.007518797" y="116" type="qcurve" smooth="yes"/>
			<point x="915.007518797" y="116"/>
			<point x="1195.007518797" y="459"/>
			<point x="1195.007518797" y="684" type="qcurve" smooth="yes"/>
			<point x="1195.007518797" y="788"/>
			<point x="1129.007518797" y="855"/>
			<point x="1056.007518797" y="855" type="qcurve" smooth="yes"/>
			<point x="954.007518797" y="855"/>
			<point x="717.007518797" y="693"/>
			<point x="610.007518797" y="571" type="qcurve"/>
			<point x="636.007518797" y="712" type="line"/>
			<point x="816.007518797" y="870"/>
			<point x="1186.007518797" y="1003"/>
			<point x="1401.007518797" y="1003" type="qcurve" smooth="yes"/>
			<point x="1583.007518797" y="1003"/>
			<point x="1799.007518797" y="874"/>
			<point x="1799.007518797" y="709" type="qcurve" smooth="yes"/>
			<point x="1799.007518797" y="406"/>
			<point x="1148.007518797" y="-13"/>
			<point x="537.007518797" y="-13" type="qcurve" smooth="yes"/>
			<point x="254.007518797" y="-13"/>
			<point x="28.007518797" y="137"/>
		</contour>
	</outline>
	<anchor name="bottom" x="575.007518797" y="0"/>
	<anchor name="top" x="575.007518797" y="1533"/>
</glyph>
<glyph name="d" format="2">
	<unicode hex="0064"/>
	<advance width="1933"/>
	<outline>
		<contour>
			<point x="-6" y="248" type="qcurve" smooth="yes"/>
			<point x="-6" y="548"/>
			<point x="705" y="1000"/>
			<point x="1157" y="1000" type="qcurve" smooth="yes"/>
			<point x="1189" y="1000" type="line"/>
			<point x="1264" y="1408" type="line"/>
			<point x="1130" y="1500" type="line"/>
			<point x="1158" y="1572" type="line"/>
			<point x="1800" y="1606" type="line"/>
			<point x="1887" y="1536" type="line"/>
			<point x="1678" y="469" type="line"/>
			<point x="1629" y="133" type="line"/>
			<point x="1714" y="133" type="line"/>
			<point x="1714" y="44" type="line"/>
			<point x="1056" y="-16" type="line"/>
			<point x="1019" y="65" type="line"/>
			<point x="1042" y="192" type="line"/>
			<point x="924" y="99"/>
			<point x="541" y="-10"/>
			<point x="382" y="-10" type="qcurve" smooth="yes"/>
			<point x="177" y="-10"/>
			<point x="-6" y="139"/>
		</contour>
		<contour>
			<point x="598" y="300" type="qcurve" smooth="yes"/>
			<point x="598" y="225"/>
			<point x="658" y="127"/>
			<point x="727" y="127" type="qcurve" smooth="yes"/>
			<point x="845" y="127"/>
			<point x="1069" y="313"/>
			<point x="1102" y="491" type="qcurve" smooth="yes"/>
			<point x="1158" y="784" type="line"/>
			<point x="1155" y="824"/>
			<point x="1089" y="850"/>
			<point x="1048" y="850" type="qcurve" smooth="yes"/>
			<point x="849" y="850"/>
			<point x="598" y="519"/>
		</contour>
	</outline>
	<anchor name="bottom" x="1033" y="0"/>
	<anchor name="center" x="1521" y="1202"/>
	<anchor name="top" x="1133" y="1534"/>
	<anchor name="topright" x="1936" y="1000"/>
	<anchor name="liga" x="1927" y="0"/>
</glyph>
<glyph name="e" format="2">
	<unicode hex="0065"/>
	<advance width="1820"/>
	<outline>
		<contour>
			<point x="5.5947242206" y="450" type="qcurve" smooth="yes"/>
			<point x="74.5947242206" y="734"/>
			<point x="717.5947242206" y="1017"/>
			<point x="1026.5947242206" y="1017" type="qcurve" smooth="yes"/>
			<point x="1339.5947242206" y="1017"/>
			<point x="1624.5947242206" y="909"/>
			<point x="1673.5947242206" y="834" type="qcurve" smooth="yes"/>
			<point x="1699.5947242206" y="793"/>
			<point x="1724.5947242206" y="713"/>
			<point x="1711.5947242206" y="654" type="qcurve"/>
			<point x="1741.5947242206" y="645" type="line"/>
			<point x="1706.5947242206" y="544" type="line"/>
			<point x="1513.5947242206" y="549"/>
			<point x="1189.5947242206" y="547"/>
			<point x="1017.5947242206" y="546" type="qcurve" smooth="yes"/>
			<point x="539.5947242206" y="544" type="line"/>
			<point x="576.5947242206" y="638" type="line"/>
			<point x="1104.5947242206" y="646" type="line"/>
			<point x="1116.5947242206" y="677"/>
			<point x="1133.5947242206" y="767"/>
			<point x="1127.5947242206" y="801" type="qcurve" smooth="yes"/>
			<point x="1120.5947242206" y="840"/>
			<point x="1060.5947242206" y="888"/>
			<point x="1003.5947242206" y="888" type="qcurve" smooth="yes"/>
			<point x="872.5947242206" y="888"/>
			<point x="647.5947242206" y="692"/>
			<point x="610.5947242206" y="511" type="qcurve" smooth="yes"/>
			<point x="572.5947242206" y="328"/>
			<point x="732.5947242206" y="134"/>
			<point x="967.5947242206" y="120" type="qcurve" smooth="yes"/>
			<point x="1114.5947242206" y="111"/>
			<point x="1457.5947242206" y="221"/>
			<point x="1598.5947242206" y="313" type="qcurve"/>
			<point x="1638.5947242206" y="258" type="line"/>
			<point x="1659.5947242206" y="230" type="line"/>
			<point x="1502.5947242206" y="121"/>
			<point x="1020.5947242206" y="-31"/>
			<point x="608.5947242206" y="-17" type="qcurve" smooth="yes"/>
			<point x="281.5947242206" y="-6"/>
			<point x="-41.4052757794" y="257"/>
		</contour>
	</outline>
	<anchor name="bottom" x="770.6795670183" y="0"/>
	<anchor name="ogonek" x="926.6795670183" y="0"/>
	<anchor name="top" x="1032.6795670183" y="1000"/>
</glyph>
<glyph name="l" format="2">
	<unicode hex="006C"/>
	<advance width="966"/>
	<outline>
		<contour>
			<point x="65" y="-14" type="line"/>
			<point x="18" y="86" type="line"/>
			<point x="127" y="606" type="line"/>
			<point x="275" y="1408" type="line"/>
			<point x="151" y="1500" type="line"/>
			<point x="179" y="1572" type="line"/>
			<point x="779" y="1606" type="line"/>
			<point x="866" y="1536" type="line"/>
			<point x="684" y="588" type="line"/>
			<point x="601" y="134" type="line"/>
			<point x="797" y="154" type="line"/>
			<point x="797" y="66" type="line"/>
		</contour>
	</outline>
	<anchor name="bottom" x="349" y="0"/>
	<anchor name="center" x="439" y="770"/>
	<anchor name="top" x="584" y="1534"/>
	<anchor name="topright" x="892" y="1000"/>
	<anchor name="centerright" x="927" y="680"/>
	<anchor name="liga" x="967" y="0"/>
</glyph>
<glyph name="n" format="2">
	<unicode hex="006E"/>
	<advance width="2101.8056196909"/>
	<outline>
		<contour>
			<point x="103.4547831217" y="-19.4990030924" type="line"/>
			<point x="77.9126841227" y="152.0804697673" type="line"/>
			<point x="131" y="494" type="line"/>
			<point x="189" y="822" type="line"/>
			<point x="47" y="818" type="line"/>
			<point x="49" y="915" type="line"/>
			<point x="466" y="994" type="line"/>
			<point x="715" y="994" type="line"/>
			<point x="733.8144848888" y="702.7291481565" type="line"/>
			<point x="715" y="588" type="line"/>
			<point x="643" y="113" type="line"/>
			<point x="673" y="-25" type="line"/>
		</contour>
		<contour>
			<point x="1143" y="-13" type="line"/>
			<point x="1107" y="120" type="line"/>
			<point x="1182" y="669" type="line" smooth="yes"/>
			<point x="1192.1091976241" y="742.9993266086"/>
			<point x="1155" y="829"/>
			<point x="1078" y="829" type="qcurve" smooth="yes"/>
			<point x="980" y="829"/>
			<point x="777.2076329242" y="764.2071492125"/>
			<point x="675.5196595038" y="679.5211371176" type="qcurve"/>
			<point x="617" y="724" type="line"/>
			<point x="732" y="835"/>
			<point x="1116" y="1021"/>
			<point x="1352" y="1021" type="qcurve" smooth="yes"/>
			<point x="1556" y="1021"/>
			<point x="1774.4564547128" y="836.9627578966"/>
			<point x="1746.1061737197" y="649.7576535386" type="qcurve" smooth="yes"/>
			<point x="1663" y="109" type="line"/>
			<point x="1784" y="87" type="line"/>
			<point x="1779" y="1" type="line"/>
		</contour>
	</outline>
	<anchor name="bottom" x="1025.9309082997" y="0"/>
	<anchor name="top" x="1025.9309082997" y="1000"/>
	<anchor name="liga" x="1908" y="0"/>
</glyph>
<glyph name="o" format="2">
	<unicode hex="006F"/>
	<advance width="1901"/>
	<outline>
		<contour>
			<point x="5.2978723404" y="502" type="qcurve" smooth="yes"/>
			<point x="57.2978723404" y="740"/>
			<point x="723.2978723404" y="1044"/>
			<point x="1129.2978723404" y="1016" type="qcurve" smooth="yes"/>
			<point x="1504.2978723404" y="989"/>
			<point x="1820.2978723404" y="742"/>
			<point x="1769.2978723404" y="505" type="qcurve" smooth="yes"/>
			<point x="1719.2978723404" y="268"/>
			<point x="1058.2978723404" y="-42"/>
			<point x="655.2978723404" y="-16" type="qcurve" smooth="yes"/>
			<point x="275.2978723404" y="12"/>
			<point x="-45.7021276596" y="262"/>
		</contour>
		<contour>
			<point x="605.2978723404" y="537" type="qcurve" smooth="yes"/>
			<point x="568.2978723404" y="359"/>
			<point x="665.2978723404" y="103"/>
			<point x="796.2978723404" y="93" type="qcurve" smooth="yes"/>
			<point x="937.2978723404" y="84"/>
			<point x="1129.2978723404" y="301"/>
			<point x="1168.2978723404" y="488" type="qcurve" smooth="yes"/>
			<point x="1205.2978723404" y="660"/>
			<point x="1101.2978723404" y="892"/>
			<point x="970.2978723404" y="901" type="qcurve" smooth="yes"/>
			<point x="828.2978723404" y="911"/>
			<point x="641.2978723404" y="715"/>
		</contour>
	</outline>
	<anchor name="bottom" x="732.2978723404" y="0"/>
	<anchor name="center" x="885.2978723404" y="516"/>
	<anchor name="ogonek" x="1017.2978723404" y="0"/>
	<anchor name="top" x="1037.2978723404" y="1000"/>
	<anchor name="topright" x="1266.2978723404" y="1000"/>
	<anchor name="GRKtop" x="997.2978723404" y="1000"/>
	<anchor name="yu_dash" x="77.2978723404" y="498"/>
</glyph>
<glyph name="cent" format="2">
  <advance width="974"/>
  <unicode hex="00A2"/>
  <outline>
    <contour>
      <point x="299" y="-100" type="line"/>
      <point x="345" y="162" type="line"/>
      <point x="362" y="162" type="line"/>
      <point x="445" y="630" type="line"/>
      <point x="561" y="588" type="line"/>
      <point x="486" y="162" type="line"/>
      <point x="505" y="162" type="line"/>
      <point x="468" y="-50" type="line"/>
    </contour>
    <contour>
      <point x="541" y="1280" type="line"/>
      <point x="708" y="1319" type="line"/>
      <point x="662" y="1059" type="line"/>
      <point x="644" y="1059" type="line"/>
      <point x="561" y="588" type="line"/>
      <point x="445" y="630" type="line"/>
      <point x="520" y="1059" type="line"/>
      <point x="502" y="1059" type="line"/>
    </contour>
    <contour>
      <point x="70" y="614" type="qcurve" smooth="yes"/>
      <point x="128" y="851"/>
      <point x="494" y="1141"/>
      <point x="652" y="1141" type="qcurve" smooth="yes"/>
      <point x="750" y="1141"/>
      <point x="907" y="1052"/>
      <point x="907" y="981" type="qcurve" smooth="yes"/>
      <point x="907" y="872"/>
      <point x="810" y="754"/>
      <point x="749" y="746" type="qcurve"/>
      <point x="741" y="755" type="line"/>
      <point x="741" y="950" type="line" smooth="yes"/>
      <point x="741" y="975"/>
      <point x="677" y="1012"/>
      <point x="623" y="1012" type="qcurve" smooth="yes"/>
      <point x="486" y="1012"/>
      <point x="268" y="806"/>
      <point x="220" y="594" type="qcurve" smooth="yes"/>
      <point x="186" y="445"/>
      <point x="290" y="218"/>
      <point x="443" y="218" type="qcurve" smooth="yes"/>
      <point x="558" y="218"/>
      <point x="739" y="334"/>
      <point x="801" y="423" type="qcurve"/>
      <point x="859" y="359" type="line"/>
      <point x="859" y="330" type="line"/>
      <point x="795" y="244"/>
      <point x="529" y="84"/>
      <point x="362" y="91" type="qcurve" smooth="yes"/>
      <point x="190" y="98"/>
      <point x="14" y="385"/>
    </contour>
  </outline>
</glyph>
<glyph name="copyright" format="2">
	<unicode hex="00A9"/>
	<advance width="2048"/>
	<outline>
		<contour>
			<point x="505" y="662" type="qcurve" smooth="yes"/>
			<point x="505" y="901"/>
			<point x="802" y="1209"/>
			<point x="1060" y="1209" type="qcurve" smooth="yes"/>
			<point x="1131" y="1209"/>
			<point x="1262" y="1176"/>
			<point x="1292" y="1152" type="qcurve"/>
			<point x="1324" y="1206" type="line"/>
			<point x="1412" y="1177" type="line"/>
			<point x="1428" y="851" type="line"/>
			<point x="1330" y="834" type="line"/>
			<point x="1297" y="1019" type="line"/>
			<point x="1268" y="1053"/>
			<point x="1199" y="1098"/>
			<point x="1160" y="1098" type="qcurve" smooth="yes"/>
			<point x="1066" y="1098"/>
			<point x="951" y="898"/>
			<point x="951" y="704" type="qcurve" smooth="yes"/>
			<point x="951" y="502"/>
			<point x="1087" y="295"/>
			<point x="1176" y="295" type="qcurve" smooth="yes"/>
			<point x="1256" y="295"/>
			<point x="1404" y="398"/>
			<point x="1452" y="455" type="qcurve"/>
			<point x="1512" y="380" type="line"/>
			<point x="1450" y="287"/>
			<point x="1212" y="165"/>
			<point x="1087" y="165" type="qcurve" smooth="yes"/>
			<point x="824" y="165"/>
			<point x="505" y="433"/>
		</contour>
		<contour>
			<point x="143" y="685" type="qcurve" smooth="yes"/>
			<point x="143" y="1061"/>
			<point x="664" y="1570"/>
			<point x="1068" y="1570" type="qcurve" smooth="yes"/>
			<point x="1470" y="1570"/>
			<point x="1989" y="1087"/>
			<point x="1989" y="706" type="qcurve" smooth="yes"/>
			<point x="1989" y="288"/>
			<point x="1477" y="-242"/>
			<point x="1080" y="-242" type="qcurve" smooth="yes"/>
			<point x="671" y="-242"/>
			<point x="143" y="276"/>
		</contour>
		<contour>
			<point x="308" y="681" type="qcurve" smooth="yes"/>
			<point x="308" y="335"/>
			<point x="765" y="-118"/>
			<point x="1096" y="-118" type="qcurve" smooth="yes"/>
			<point x="1417" y="-118"/>
			<point x="1824" y="360"/>
			<point x="1824" y="698" type="qcurve" smooth="yes"/>
			<point x="1824" y="1007"/>
			<point x="1394" y="1446"/>
			<point x="1048" y="1446" type="qcurve" smooth="yes"/>
			<point x="720" y="1446"/>
			<point x="308" y="998"/>
		</contour>
	</outline>
</glyph>
<glyph name="ordfeminine" format="2">
	<unicode hex="00AA"/>
	<advance width="1509"/>
	<outline>
		<contour>
			<point x="607" y="928" type="qcurve" smooth="yes"/>
			<point x="607" y="873"/>
			<point x="651" y="799"/>
			<point x="703" y="799" type="qcurve" smooth="yes"/>
			<point x="791" y="799"/>
			<point x="957" y="939"/>
			<point x="984" y="1071" type="qcurve" smooth="yes"/>
			<point x="1029" y="1291" type="line"/>
			<point x="1026" y="1321"/>
			<point x="969" y="1340"/>
			<point x="939" y="1340" type="qcurve" smooth="yes"/>
			<point x="789" y="1340"/>
			<point x="607" y="1103"/>
		</contour>
		<contour>
			<point x="127" y="882" type="qcurve" smooth="yes"/>
			<point x="127" y="1115"/>
			<point x="670" y="1461"/>
			<point x="933" y="1461" type="qcurve" smooth="yes"/>
			<point x="956" y="1461"/>
			<point x="1025" y="1451"/>
			<point x="1050" y="1442" type="qcurve"/>
			<point x="1466" y="1499" type="line"/>
			<point x="1503" y="1499" type="line"/>
			<point x="1555" y="1391" type="line"/>
			<point x="1454" y="974" type="line"/>
			<point x="1415" y="787" type="line"/>
			<point x="1448" y="702" type="line"/>
			<point x="963" y="681" type="line"/>
			<point x="908" y="805" type="line"/>
			<point x="793" y="738"/>
			<point x="580" y="680"/>
			<point x="435" y="680" type="qcurve"/>
			<point x="273" y="680"/>
			<point x="127" y="797"/>
		</contour>
	</outline>
</glyph>
<glyph name="registered" format="2">
	<unicode hex="00AE"/>
	<advance width="2048"/>
	<outline>
		<contour>
			<point x="143" y="685" type="qcurve" smooth="yes"/>
			<point x="143" y="1061"/>
			<point x="664" y="1570"/>
			<point x="1068" y="1570" type="qcurve" smooth="yes"/>
			<point x="1470" y="1570"/>
			<point x="1989" y="1087"/>
			<point x="1989" y="706" type="qcurve" smooth="yes"/>
			<point x="1989" y="288"/>
			<point x="1477" y="-242"/>
			<point x="1080" y="-242" type="qcurve" smooth="yes"/>
			<point x="671" y="-242"/>
			<point x="143" y="276"/>
		</contour>
		<contour>
			<point x="308" y="681" type="qcurve" smooth="yes"/>
			<point x="308" y="335"/>
			<point x="765" y="-118"/>
			<point x="1096" y="-118" type="qcurve" smooth="yes"/>
			<point x="1417" y="-118"/>
			<point x="1824" y="360"/>
			<point x="1824" y="698" type="qcurve" smooth="yes"/>
			<point x="1824" y="1007"/>
			<point x="1394" y="1446"/>
			<point x="1048" y="1446" type="qcurve" smooth="yes"/>
			<point x="720" y="1446"/>
			<point x="308" y="998"/>
		</contour>
		<contour>
			<point x="537" y="176" type="line"/>
			<point x="527" y="266" type="line"/>
			<point x="644" y="290" type="line"/>
			<point x="655" y="723" type="line"/>
			<point x="644" y="1088" type="line"/>
			<point x="517" y="1111" type="line"/>
			<point x="517" y="1209" type="line"/>
			<point x="1180" y="1209" type="line" smooth="yes"/>
			<point x="1338" y="1209"/>
			<point x="1491" y="1082"/>
			<point x="1491" y="968" type="qcurve" smooth="yes"/>
			<point x="1491" y="841"/>
			<point x="1304" y="664"/>
			<point x="1178" y="664" type="qcurve" smooth="yes"/>
			<point x="1127" y="664"/>
			<point x="967" y="673"/>
			<point x="943" y="673" type="qcurve"/>
			<point x="943" y="758" type="line"/>
			<point x="1010" y="758" type="line" smooth="yes"/>
			<point x="1098" y="758"/>
			<point x="1161" y="868"/>
			<point x="1161" y="959" type="qcurve" smooth="yes"/>
			<point x="1161" y="1039"/>
			<point x="1092" y="1108"/>
			<point x="1016" y="1108" type="qcurve" smooth="yes"/>
			<point x="1001" y="1108" type="line"/>
			<point x="980" y="1095" type="line"/>
			<point x="967" y="723" type="line"/>
			<point x="978" y="290" type="line"/>
			<point x="1110" y="266" type="line"/>
			<point x="1110" y="176" type="line"/>
		</contour>
		<contour>
			<point x="901" y="710" type="line"/>
			<point x="1232" y="738" type="line"/>
			<point x="1482" y="393" type="line" smooth="yes"/>
			<point x="1553" y="295"/>
			<point x="1648" y="266"/>
			<point x="1690" y="266" type="qcurve"/>
			<point x="1690" y="176" type="line"/>
			<point x="1319" y="176" type="line"/>
			<point x="1277" y="190" type="line"/>
		</contour>
	</outline>
</glyph>
<glyph name="guillemotright" format="2">
	<unicode hex="00BB"/>
	<advance width="1295"/>
	<outline>
		<contour>
			<point x="775" y="586" type="line"/>
			<point x="691" y="539"/>
			<point x="190" y="257"/>
			<point x="111" y="217" type="qcurve" smooth="yes"/>
			<point x="52" y="187"/>
			<point x="-7" y="277"/>
			<point x="45" y="333" type="qcurve" smooth="yes"/>
			<point x="111" y="403"/>
			<point x="241" y="540"/>
			<point x="309" y="611" type="qcurve"/>
			<point x="280" y="677"/>
			<point x="218" y="815"/>
			<point x="182" y="892" type="qcurve"/>
			<point x="153" y="949"/>
			<point x="221" y="1013"/>
			<point x="283" y="978" type="qcurve" smooth="yes"/>
			<point x="343" y="944"/>
			<point x="717" y="674"/>
			<point x="783" y="626" type="qcurve"/>
		</contour>
		<contour>
			<point x="1253" y="567" type="line"/>
			<point x="1169" y="520"/>
			<point x="668" y="238"/>
			<point x="589" y="198" type="qcurve" smooth="yes"/>
			<point x="530" y="168"/>
			<point x="471" y="258"/>
			<point x="523" y="314" type="qcurve" smooth="yes"/>
			<point x="589" y="384"/>
			<point x="719" y="521"/>
			<point x="787" y="592" type="qcurve"/>
			<point x="755" y="658"/>
			<point x="682" y="809"/>
			<point x="642" y="892" type="qcurve"/>
			<point x="613" y="949"/>
			<point x="680" y="1014"/>
			<point x="743" y="978" type="qcurve" smooth="yes"/>
			<point x="803" y="944"/>
			<point x="1197" y="654"/>
			<point x="1261" y="607" type="qcurve"/>
		</contour>
	</outline>
</glyph>
<glyph name="questiondown" format="2">
	<unicode hex="00BF"/>
	<advance width="1424"/>
	<outline>
		<contour>
			<point x="1313" y="144" type="qcurve" smooth="yes"/>
			<point x="1286" y="4"/>
			<point x="882" y="-222"/>
			<point x="613" y="-222" type="qcurve" smooth="yes"/>
			<point x="271" y="-222"/>
			<point x="-53" y="-31"/>
			<point x="-53" y="124" type="qcurve" smooth="yes"/>
			<point x="-53" y="291"/>
			<point x="232" y="507"/>
			<point x="460" y="574" type="qcurve" smooth="yes"/>
			<point x="555" y="602"/>
			<point x="794" y="666"/>
			<point x="841" y="727" type="qcurve" smooth="yes"/>
			<point x="858" y="749" type="line"/>
			<point x="969" y="749" type="line"/>
			<point x="963" y="723" type="line" smooth="yes"/>
			<point x="949" y="663"/>
			<point x="837" y="556"/>
			<point x="722" y="476" type="qcurve" smooth="yes"/>
			<point x="584" y="380"/>
			<point x="427" y="193"/>
			<point x="427" y="85" type="qcurve" smooth="yes"/>
			<point x="427" y="-7"/>
			<point x="550" y="-111"/>
			<point x="667" y="-111" type="qcurve" smooth="yes"/>
			<point x="789" y="-111"/>
			<point x="944" y="-24"/>
			<point x="954" y="29" type="qcurve" smooth="yes"/>
			<point x="963" y="75"/>
			<point x="831" y="165"/>
			<point x="845" y="243" type="qcurve" smooth="yes"/>
			<point x="854" y="308"/>
			<point x="983" y="413"/>
			<point x="1090" y="413" type="qcurve" smooth="yes"/>
			<point x="1212" y="413"/>
			<point x="1336" y="261"/>
		</contour>
		<contour>
			<point x="1064" y="1214" type="qcurve" smooth="yes"/>
			<point x="1064" y="1159"/>
			<point x="987" y="1078"/>
			<point x="927" y="1078" type="qcurve" smooth="yes"/>
			<point x="868" y="1078"/>
			<point x="791" y="1159"/>
			<point x="791" y="1214" type="qcurve" smooth="yes"/>
			<point x="791" y="1268"/>
			<point x="868" y="1350"/>
			<point x="927" y="1350" type="qcurve" smooth="yes"/>
			<point x="987" y="1350"/>
			<point x="1064" y="1268"/>
		</contour>
	</outline>
</glyph>
<glyph name="germandbls" format="2">
	<unicode hex="00DF"/>
	<advance width="2167"/>
	<outline>
		<contour>
			<point x="53" y="39" type="qcurve" smooth="yes"/>
			<point x="238" y="1177" type="line" smooth="yes"/>
			<point x="275" y="1405"/>
			<point x="824" y="1567"/>
			<point x="1083" y="1567" type="qcurve" smooth="yes"/>
			<point x="1390" y="1567"/>
			<point x="1787" y="1422"/>
			<point x="1787" y="1283" type="qcurve" smooth="yes"/>
			<point x="1787" y="1146"/>
			<point x="1533" y="1041"/>
			<point x="1305" y="991" type="qcurve" smooth="yes"/>
			<point x="1258" y="981"/>
			<point x="1220" y="946"/>
			<point x="1220" y="919" type="qcurve" smooth="yes"/>
			<point x="1220" y="869"/>
			<point x="1411" y="788"/>
			<point x="1560" y="732" type="qcurve" smooth="yes"/>
			<point x="1822" y="635"/>
			<point x="1956" y="462"/>
			<point x="1957" y="358" type="qcurve" smooth="yes"/>
			<point x="1958" y="187"/>
			<point x="1610" y="-15"/>
			<point x="1333" y="-15" type="qcurve" smooth="yes"/>
			<point x="1037" y="-15"/>
			<point x="770" y="127"/>
			<point x="770" y="210" type="qcurve" smooth="yes"/>
			<point x="770" y="290"/>
			<point x="921" y="380"/>
			<point x="1080" y="380" type="qcurve" smooth="yes"/>
			<point x="1108" y="380" type="line"/>
			<point x="1108" y="195" type="line" smooth="yes"/>
			<point x="1108" y="148"/>
			<point x="1179" y="98"/>
			<point x="1260" y="98" type="qcurve" smooth="yes"/>
			<point x="1356" y="98"/>
			<point x="1483" y="155"/>
			<point x="1483" y="221" type="qcurve" smooth="yes"/>
			<point x="1483" y="272"/>
			<point x="1349" y="350"/>
			<point x="1212" y="396" type="qcurve" smooth="yes"/>
			<point x="1029" y="461"/>
			<point x="883" y="624"/>
			<point x="884" y="726" type="qcurve" smooth="yes"/>
			<point x="885" y="837"/>
			<point x="1028" y="961"/>
			<point x="1121" y="1016" type="qcurve" smooth="yes"/>
			<point x="1194" y="1059"/>
			<point x="1272" y="1170"/>
			<point x="1272" y="1242" type="qcurve" smooth="yes"/>
			<point x="1272" y="1333"/>
			<point x="1174" y="1441"/>
			<point x="1074" y="1441" type="qcurve" smooth="yes"/>
			<point x="970" y="1441"/>
			<point x="847" y="1304"/>
			<point x="824" y="1162" type="qcurve" smooth="yes"/>
			<point x="645" y="82" type="line" smooth="yes"/>
			<point x="605" y="-161"/>
			<point x="177" y="-449"/>
			<point x="-202" y="-449" type="qcurve"/>
			<point x="-360" y="-399" type="line"/>
			<point x="-360" y="-305" type="line"/>
			<point x="-185" y="-303" type="line"/>
			<point x="-81" y="-303"/>
			<point x="20" y="-164"/>
		</contour>
	</outline>
</glyph>
<glyph name="ae" format="2">
	<unicode hex="00E6"/>
	<advance width="2876"/>
	<outline>
		<contour>
			<point x="598" y="300" type="qcurve" smooth="yes"/>
			<point x="598" y="225"/>
			<point x="662" y="127"/>
			<point x="731" y="127" type="qcurve" smooth="yes"/>
			<point x="849" y="127"/>
			<point x="1051" y="351"/>
			<point x="1088" y="491" type="qcurve" smooth="yes"/>
			<point x="1166" y="786" type="line"/>
			<point x="1163" y="826"/>
			<point x="1087" y="852"/>
			<point x="1046" y="852" type="qcurve" smooth="yes"/>
			<point x="846" y="852"/>
			<point x="598" y="533"/>
		</contour>
		<contour>
			<point x="-6" y="248" type="qcurve"/>
			<point x="-7" y="548"/>
			<point x="715" y="991"/>
			<point x="1065" y="991" type="qcurve" smooth="yes"/>
			<point x="1095" y="991"/>
			<point x="1150" y="978"/>
			<point x="1170" y="967" type="qcurve"/>
			<point x="1659" y="1020" type="line"/>
			<point x="1705" y="1020" type="line"/>
			<point x="1736" y="885" type="line"/>
			<point x="1841" y="962"/>
			<point x="2073" y="1030"/>
			<point x="2167" y="1030" type="qcurve" smooth="yes"/>
			<point x="2411" y="1030"/>
			<point x="2676" y="909"/>
			<point x="2721" y="849" type="qcurve" smooth="yes"/>
			<point x="2754" y="804"/>
			<point x="2783" y="716"/>
			<point x="2769" y="654" type="qcurve"/>
			<point x="2799" y="645" type="line"/>
			<point x="2764" y="544" type="line"/>
			<point x="2572" y="549"/>
			<point x="2247" y="547"/>
			<point x="2075" y="546" type="qcurve" smooth="yes"/>
			<point x="1617" y="544" type="line"/>
			<point x="1614" y="638" type="line"/>
			<point x="2162" y="646" type="line"/>
			<point x="2174" y="677"/>
			<point x="2197" y="774"/>
			<point x="2189" y="814" type="qcurve" smooth="yes"/>
			<point x="2181" y="853"/>
			<point x="2122" y="901"/>
			<point x="2065" y="901" type="qcurve" smooth="yes"/>
			<point x="1934" y="901"/>
			<point x="1706" y="692"/>
			<point x="1668" y="511" type="qcurve" smooth="yes"/>
			<point x="1630" y="328"/>
			<point x="1790" y="134"/>
			<point x="2026" y="120" type="qcurve" smooth="yes"/>
			<point x="2172" y="111"/>
			<point x="2515" y="221"/>
			<point x="2656" y="314" type="qcurve"/>
			<point x="2696" y="259" type="line"/>
			<point x="2717" y="231" type="line"/>
			<point x="2560" y="121"/>
			<point x="2078" y="-30"/>
			<point x="1666" y="-17" type="qcurve" smooth="yes"/>
			<point x="1432" y="-10"/>
			<point x="1097" y="124"/>
			<point x="1082" y="223" type="qcurve"/>
			<point x="916" y="98"/>
			<point x="545" y="-10"/>
			<point x="364" y="-10" type="qcurve" smooth="yes"/>
			<point x="168" y="-10"/>
			<point x="-6" y="139"/>
		</contour>
	</outline>
	<anchor name="top" x="1465" y="1000"/>
</glyph>
<glyph name="thorn" format="2">
	<unicode hex="00FE"/>
	<advance width="1922"/>
	<outline>
		<contour>
			<point x="-53" y="-392" type="line"/>
			<point x="117" y="512" type="line"/>
			<point x="267" y="1410" type="line"/>
			<point x="163" y="1502" type="line"/>
			<point x="191" y="1574" type="line"/>
			<point x="841" y="1608" type="line"/>
			<point x="928" y="1538" type="line"/>
			<point x="801" y="817" type="line"/>
			<point x="941" y="913"/>
			<point x="1253" y="1007"/>
			<point x="1411" y="1007" type="qcurve" smooth="yes"/>
			<point x="1638" y="1007"/>
			<point x="1841" y="878"/>
			<point x="1841" y="769" type="qcurve" smooth="yes"/>
			<point x="1841" y="428"/>
			<point x="1151" y="30"/>
			<point x="820" y="30" type="qcurve" smooth="yes"/>
			<point x="771" y="30"/>
			<point x="689" y="41"/>
			<point x="656" y="51" type="qcurve"/>
			<point x="587" y="-316" type="line"/>
			<point x="712" y="-356" type="line"/>
			<point x="684" y="-428" type="line"/>
			<point x="34" y="-462" type="line"/>
		</contour>
		<contour>
			<point x="696" y="269" type="line"/>
			<point x="685" y="208"/>
			<point x="742" y="169"/>
			<point x="791" y="169" type="qcurve" smooth="yes"/>
			<point x="990" y="169"/>
			<point x="1238" y="477"/>
			<point x="1238" y="716" type="qcurve" smooth="yes"/>
			<point x="1238" y="791"/>
			<point x="1177" y="858"/>
			<point x="1108" y="858" type="qcurve" smooth="yes"/>
			<point x="1032" y="858"/>
			<point x="848" y="756"/>
			<point x="775" y="691" type="qcurve"/>
			<point x="738" y="494" type="line"/>
		</contour>
	</outline>
</glyph>
<glyph name="kgreenlandic" format="2">
	<unicode hex="0138"/>
	<advance width="1853"/>
	<outline>
		<contour>
			<point x="80" y="56" type="line"/>
			<point x="183" y="527" type="line"/>
			<point x="235" y="820" type="line"/>
			<point x="93" y="816" type="line"/>
			<point x="92" y="915" type="line"/>
			<point x="762" y="1003" type="line"/>
			<point x="807" y="1001" type="line"/>
			<point x="861" y="930" type="line"/>
			<point x="801" y="588" type="line"/>
			<point x="703" y="83" type="line"/>
			<point x="734" y="0" type="line"/>
			<point x="122" y="-23" type="line"/>
		</contour>
		<contour>
			<point x="1604" y="908" type="line"/>
			<point x="1483" y="862" type="line"/>
			<point x="1186" y="675" type="line"/>
			<point x="1711" y="133" type="line"/>
			<point x="1835" y="133" type="line"/>
			<point x="1835" y="45" type="line"/>
			<point x="1267" y="-8" type="line" smooth="yes"/>
			<point x="1207" y="-14"/>
			<point x="1134" y="5"/>
			<point x="1068" y="111" type="qcurve"/>
			<point x="795" y="433" type="line"/>
			<point x="677" y="353" type="line"/>
			<point x="696" y="457" type="line"/>
			<point x="1329" y="865" type="line"/>
			<point x="1334" y="894" type="line"/>
			<point x="1222" y="917" type="line"/>
			<point x="1233" y="1000" type="line"/>
			<point x="1619" y="1000" type="line"/>
		</contour>
	</outline>
</glyph>
<glyph name="oe" format="2">
  <advance width="2956"/>
  <unicode hex="0153"/>
  <outline>
    <contour>
      <point x="5" y="532" type="qcurve" smooth="yes"/>
      <point x="54" y="757"/>
      <point x="617" y="1040"/>
      <point x="960" y="1016" type="qcurve" smooth="yes"/>
      <point x="1146" y="1003"/>
      <point x="1445" y="896"/>
      <point x="1538" y="803" type="qcurve"/>
      <point x="1679" y="916"/>
      <point x="2023" y="1030"/>
      <point x="2181" y="1030" type="qcurve" smooth="yes"/>
      <point x="2480" y="1030"/>
      <point x="2758" y="913"/>
      <point x="2800" y="834" type="qcurve" smooth="yes"/>
      <point x="2822" y="792"/>
      <point x="2835" y="704"/>
      <point x="2825" y="654" type="qcurve"/>
      <point x="2859" y="645" type="line"/>
      <point x="2822" y="544" type="line"/>
      <point x="2633" y="549"/>
      <point x="2313" y="547"/>
      <point x="2144" y="546" type="qcurve" smooth="yes"/>
      <point x="1666" y="544" type="line"/>
      <point x="1703" y="638" type="line"/>
      <point x="2231" y="646" type="line"/>
      <point x="2243" y="677"/>
      <point x="2266" y="774"/>
      <point x="2258" y="814" type="qcurve" smooth="yes"/>
      <point x="2250" y="853"/>
      <point x="2191" y="901"/>
      <point x="2134" y="901" type="qcurve" smooth="yes"/>
      <point x="2003" y="901"/>
      <point x="1774" y="692"/>
      <point x="1737" y="511" type="qcurve" smooth="yes"/>
      <point x="1700" y="328"/>
      <point x="1859" y="134"/>
      <point x="2094" y="120" type="qcurve" smooth="yes"/>
      <point x="2241" y="111"/>
      <point x="2574" y="201"/>
      <point x="2725" y="313" type="qcurve"/>
      <point x="2765" y="258" type="line"/>
      <point x="2786" y="230" type="line"/>
      <point x="2631" y="89"/>
      <point x="2218" y="-30"/>
      <point x="1985" y="-25" type="qcurve" smooth="yes"/>
      <point x="1790" y="-21"/>
      <point x="1536" y="76"/>
      <point x="1438" y="177" type="qcurve"/>
      <point x="1316" y="83"/>
      <point x="940" y="-25"/>
      <point x="728" y="-16" type="qcurve" smooth="yes"/>
      <point x="367" y="-1"/>
      <point x="-49" y="277"/>
    </contour>
    <contour>
      <point x="590" y="537" type="qcurve" smooth="yes"/>
      <point x="553" y="359"/>
      <point x="650" y="103"/>
      <point x="781" y="93" type="qcurve" smooth="yes"/>
      <point x="922" y="84"/>
      <point x="1110" y="284"/>
      <point x="1153" y="488" type="qcurve" smooth="yes"/>
      <point x="1189" y="661"/>
      <point x="1086" y="892"/>
      <point x="955" y="901" type="qcurve" smooth="yes"/>
      <point x="813" y="911"/>
      <point x="626" y="715"/>
    </contour>
  </outline>
</glyph>
<glyph name="acutecomb" format="2">
	<unicode hex="0301"/>
	<outline>
		<contour>
			<point x="-127" y="1219" type="line"/>
			<point x="-3" y="1384" type="line" smooth="yes"/>
			<point x="37" y="1438"/>
			<point x="142" y="1561"/>
			<point x="204" y="1561" type="qcurve" smooth="yes"/>
			<point x="278" y="1561"/>
			<point x="372" y="1475"/>
			<point x="372" y="1404" type="qcurve" smooth="yes"/>
			<point x="372" y="1324"/>
			<point x="256" y="1253"/>
			<point x="118" y="1209" type="qcurve" smooth="yes"/>
			<point x="-71" y="1148" type="line"/>
		</contour>
	</outline>
	<anchor name="_top" x="0" y="1000"/>
	<anchor name="top" x="102" y="1524"/>
</glyph>
<glyph name="tildecomb" format="2">
	<unicode hex="0303"/>
	<outline>
		<contour>
			<point x="-432" y="1252" type="line"/>
			<point x="-384" y="1315"/>
			<point x="-203" y="1530"/>
			<point x="-132" y="1530" type="qcurve" smooth="yes"/>
			<point x="-79" y="1530"/>
			<point x="54" y="1492"/>
			<point x="95" y="1476" type="qcurve" smooth="yes"/>
			<point x="140" y="1459"/>
			<point x="290" y="1407"/>
			<point x="343" y="1407" type="qcurve" smooth="yes"/>
			<point x="382" y="1407"/>
			<point x="456" y="1461"/>
			<point x="486" y="1497" type="qcurve"/>
			<point x="545" y="1418" type="line"/>
			<point x="491" y="1342"/>
			<point x="315" y="1150"/>
			<point x="257" y="1150" type="qcurve" smooth="yes"/>
			<point x="197" y="1150"/>
			<point x="66" y="1195"/>
			<point x="11" y="1215" type="qcurve" smooth="yes"/>
			<point x="-26" y="1229"/>
			<point x="-179" y="1273"/>
			<point x="-219" y="1273" type="qcurve" smooth="yes"/>
			<point x="-266" y="1273"/>
			<point x="-344" y="1200"/>
			<point x="-367" y="1173" type="qcurve"/>
		</contour>
	</outline>
	<anchor name="_top" x="0" y="1000"/>
	<anchor name="top" x="79" y="1402"/>
</glyph>
<glyph name="caroncomb" format="2">
	<unicode hex="030C"/>
	<outline>
		<contour>
			<point x="27" y="1132" type="qcurve" smooth="yes"/>
			<point x="-7" y="1132"/>
			<point x="-65" y="1173"/>
			<point x="-81" y="1204" type="qcurve" smooth="yes"/>
			<point x="-218" y="1458" type="line"/>
			<point x="-138" y="1530" type="line"/>
			<point x="75" y="1406" type="line"/>
			<point x="331" y="1530" type="line"/>
			<point x="406" y="1458" type="line"/>
			<point x="150" y="1195" type="line" smooth="yes"/>
			<point x="116" y="1160"/>
			<point x="61" y="1132"/>
		</contour>
	</outline>
	<anchor name="_top" x="0" y="1000"/>
	<anchor name="top" x="106" y="1541"/>
</glyph>
<glyph name="dblgravecomb" format="2">
	<unicode hex="0311"/>
	<outline>
		<contour>
			<point x="-319" y="1550" type="qcurve" smooth="yes"/>
			<point x="-296" y="1584"/>
			<point x="-201" y="1616"/>
			<point x="-153" y="1596" type="qcurve" smooth="yes"/>
			<point x="-110" y="1578"/>
			<point x="-80" y="1500"/>
			<point x="-71" y="1451" type="qcurve" smooth="yes"/>
			<point x="-22" y="1172" type="line"/>
			<point x="-124" y="1131" type="line"/>
			<point x="-297" y="1408" type="line" smooth="yes"/>
			<point x="-324" y="1451"/>
			<point x="-342" y="1516"/>
		</contour>
		<contour>
			<point x="-36" y="1540" type="qcurve" smooth="yes"/>
			<point x="-15" y="1576"/>
			<point x="83" y="1606"/>
			<point x="130" y="1585" type="qcurve" smooth="yes"/>
			<point x="167" y="1569"/>
			<point x="205" y="1490"/>
			<point x="212" y="1441" type="qcurve" smooth="yes"/>
			<point x="251" y="1162" type="line"/>
			<point x="149" y="1121" type="line"/>
			<point x="-14" y="1398" type="line" smooth="yes"/>
			<point x="-40" y="1442"/>
			<point x="-54" y="1509"/>
		</contour>
	</outline>
	<anchor name="_top" x="0" y="1000"/>
	<anchor name="top" x="114" y="1585"/>
</glyph>
<glyph name="ogonekcomb" format="2">
	<unicode hex="0328"/>
	<outline>
		<contour>
			<point x="-333" y="-240" type="qcurve" smooth="yes"/>
			<point x="-333" y="-277"/>
			<point x="-296" y="-327"/>
			<point x="-260" y="-327" type="qcurve" smooth="yes"/>
			<point x="-225" y="-327"/>
			<point x="-111" y="-289"/>
			<point x="-59" y="-254" type="qcurve"/>
			<point x="-24" y="-347" type="line"/>
			<point x="-72" y="-385"/>
			<point x="-221" y="-444"/>
			<point x="-321" y="-444" type="qcurve" smooth="yes"/>
			<point x="-421" y="-444"/>
			<point x="-576" y="-351"/>
			<point x="-575" y="-263" type="qcurve" smooth="yes"/>
			<point x="-574" y="-186"/>
			<point x="-434" y="-57"/>
			<point x="-304" y="13" type="qcurve" smooth="yes"/>
			<point x="-233" y="51" type="line"/>
			<point x="-171" y="8" type="line"/>
			<point x="-224" y="-32" type="line" smooth="yes"/>
			<point x="-292" y="-84"/>
			<point x="-333" y="-186"/>
		</contour>
	</outline>
	<anchor name="_ogonek" x="-194" y="0"/>
	<anchor name="bottom" x="-284" y="-463"/>
</glyph>
<glyph name="brevebelowcomb" format="2">
	<unicode hex="032E"/>
	<outline>
		<contour>
			<point x="57" y="-72" type="qcurve"/>
			<point x="134" y="-125" type="line"/>
			<point x="92" y="-223"/>
			<point x="-138" y="-392"/>
			<point x="-268" y="-392" type="qcurve" smooth="yes"/>
			<point x="-397" y="-392"/>
			<point x="-572" y="-239"/>
			<point x="-575" y="-128" type="qcurve"/>
			<point x="-491" y="-71" type="line"/>
			<point x="-454" y="-124"/>
			<point x="-348" y="-174"/>
			<point x="-251" y="-174" type="qcurve" smooth="yes"/>
			<point x="-150" y="-174"/>
			<point x="7" y="-120"/>
		</contour>
	</outline>
	<anchor name="_bottom" x="-194" y="0"/>
	<anchor name="bottom" x="-284" y="-463"/>
</glyph>
<glyph name="alpha" format="2">
	<unicode hex="03B1"/>
	<advance width="2228"/>
	<outline>
		<contour>
			<point x="572" y="-8" type="qcurve" smooth="yes"/>
			<point x="268" y="14"/>
			<point x="-17" y="305"/>
			<point x="30" y="531" type="qcurve" smooth="yes"/>
			<point x="77" y="782"/>
			<point x="597" y="1039"/>
			<point x="958" y="1015" type="qcurve" smooth="yes"/>
			<point x="1174" y="998"/>
			<point x="1499" y="807"/>
			<point x="1634" y="604" type="qcurve"/>
			<point x="1644" y="604" type="line"/>
			<point x="1893" y="139" type="line"/>
			<point x="2033" y="154" type="line"/>
			<point x="2033" y="66" type="line"/>
			<point x="1333" y="-21" type="line"/>
			<point x="1333" y="-21" type="line"/>
			<point x="1231" y="393" type="line"/>
			<point x="1221" y="396" type="line"/>
			<point x="1180" y="673"/>
			<point x="1072.4164859002" y="904"/>
			<point x="962.4164859002" y="913" type="qcurve" smooth="yes"/>
			<point x="837.4164859002" y="921"/>
			<point x="661.4164859002" y="704"/>
			<point x="626.4164859002" y="544" type="qcurve" smooth="yes"/>
			<point x="584.4164859002" y="357"/>
			<point x="660.4164859002" y="115"/>
			<point x="762.4164859002" y="107" type="qcurve" smooth="yes"/>
			<point x="870.4164859002" y="99"/>
			<point x="1105" y="297"/>
			<point x="1264" y="561" type="qcurve"/>
			<point x="1274" y="561" type="line"/>
			<point x="1519.4164859002" y="969" type="line"/>
			<point x="2016.4164859002" y="1000" type="line"/>
			<point x="2061.4164859002" y="1000" type="line"/>
			<point x="2103.4164859002" y="921" type="line"/>
			<point x="1506" y="361" type="line"/>
			<point x="1487" y="361" type="line"/>
			<point x="1335" y="156"/>
			<point x="839" y="-27"/>
		</contour>
	</outline>
	<anchor name="GRKtop" x="952" y="1000"/>
</glyph>
<glyph name="beta" format="2">
	<unicode hex="03B2"/>
	<advance width="1931"/>
	<outline>
		<contour>
			<point x="-7" y="-462" type="line"/>
			<point x="-94" y="-392" type="line"/>
			<point x="48" y="315" type="line"/>
			<point x="186" y="993" type="line" smooth="yes"/>
			<point x="245" y="1285"/>
			<point x="779" y="1548"/>
			<point x="1163" y="1532" type="qcurve" smooth="yes"/>
			<point x="1532" y="1517"/>
			<point x="1867" y="1271"/>
			<point x="1820" y="1070" type="qcurve" smooth="yes"/>
			<point x="1800" y="985"/>
			<point x="1638" y="835"/>
			<point x="1527" y="813" type="qcurve"/>
			<point x="1526" y="806" type="line"/>
			<point x="1694" y="744"/>
			<point x="1864" y="527"/>
			<point x="1825" y="348" type="qcurve" smooth="yes"/>
			<point x="1781" y="146"/>
			<point x="1312" y="-59"/>
			<point x="900" y="-19" type="qcurve" smooth="yes"/>
			<point x="787" y="-8"/>
			<point x="606" y="52"/>
			<point x="581" y="71" type="qcurve"/>
			<point x="487" y="-447" type="line"/>
		</contour>
		<contour>
			<point x="855" y="93" type="qcurve" smooth="yes"/>
			<point x="1014" y="83"/>
			<point x="1218" y="255"/>
			<point x="1247" y="392" type="qcurve" smooth="yes"/>
			<point x="1274" y="526"/>
			<point x="1193" y="735"/>
			<point x="1127" y="784" type="qcurve"/>
			<point x="767" y="591" type="line"/>
			<point x="748" y="627" type="line"/>
			<point x="925" y="1087" type="line"/>
			<point x="1150" y="909" type="line"/>
			<point x="1191" y="942"/>
			<point x="1249" y="1062"/>
			<point x="1264" y="1133" type="qcurve" smooth="yes"/>
			<point x="1289" y="1271"/>
			<point x="1209" y="1411"/>
			<point x="1116" y="1419" type="qcurve" smooth="yes"/>
			<point x="983" y="1430"/>
			<point x="809" y="1242"/>
			<point x="767" y="1007" type="qcurve"/>
			<point x="600" y="191" type="line"/>
			<point x="649" y="146"/>
			<point x="760" y="99"/>
		</contour>
	</outline>
</glyph>
<glyph name="gamma" format="2">
	<unicode hex="03B3"/>
	<advance width="1504"/>
	<outline>
		<contour>
			<point x="215" y="-462" type="line"/>
			<point x="118" y="-392" type="line"/>
			<point x="234" y="11" type="line"/>
			<point x="171" y="499" type="line"/>
			<point x="132" y="834" type="line"/>
			<point x="-12" y="817" type="line"/>
			<point x="-10" y="914" type="line"/>
			<point x="639" y="1000" type="line"/>
			<point x="703" y="1000" type="line"/>
			<point x="753" y="556" type="line"/>
			<point x="786" y="283" type="line"/>
			<point x="797" y="174" type="line"/>
			<point x="807" y="174" type="line"/>
			<point x="889" y="283" type="line" smooth="yes"/>
			<point x="1012" y="447"/>
			<point x="1080" y="587"/>
			<point x="1080" y="648" type="qcurve" smooth="yes"/>
			<point x="1080" y="722"/>
			<point x="904" y="815"/>
			<point x="904" y="866" type="qcurve" smooth="yes"/>
			<point x="904" y="945"/>
			<point x="1037" y="1041"/>
			<point x="1151" y="1041" type="qcurve"/>
			<point x="1256" y="1041"/>
			<point x="1393" y="944"/>
			<point x="1393" y="837" type="qcurve" smooth="yes"/>
			<point x="1393" y="699"/>
			<point x="1075" y="340"/>
			<point x="801" y="12" type="qcurve"/>
			<point x="730" y="-443" type="line"/>
		</contour>
	</outline>
</glyph>
<glyph name="epsilon" format="2">
	<unicode hex="03B5"/>
	<advance width="1500"/>
	<outline>
		<contour>
			<point x="625" y="-17" type="qcurve" smooth="yes"/>
			<point x="224" y="-17"/>
			<point x="-89" y="145"/>
			<point x="-59" y="297" type="qcurve" smooth="yes"/>
			<point x="-43" y="376"/>
			<point x="105" y="480"/>
			<point x="239" y="507" type="qcurve"/>
			<point x="240" y="514" type="line"/>
			<point x="149" y="539"/>
			<point x="45" y="645"/>
			<point x="65" y="741" type="qcurve" smooth="yes"/>
			<point x="100" y="902"/>
			<point x="629" y="1045"/>
			<point x="1015" y="1015" type="qcurve" smooth="yes"/>
			<point x="1233" y="998"/>
			<point x="1401" y="906"/>
			<point x="1401" y="835" type="qcurve" smooth="yes"/>
			<point x="1401" y="757"/>
			<point x="1247" y="643"/>
			<point x="1088" y="626" type="qcurve"/>
			<point x="1065" y="653" type="line"/>
			<point x="1065" y="825" type="line" smooth="yes"/>
			<point x="1065" y="850"/>
			<point x="1023" y="883"/>
			<point x="972" y="887" type="qcurve" smooth="yes"/>
			<point x="857" y="896"/>
			<point x="660" y="799"/>
			<point x="642" y="710" type="qcurve" smooth="yes"/>
			<point x="632" y="671"/>
			<point x="658" y="586"/>
			<point x="682" y="565" type="qcurve"/>
			<point x="992" y="689" type="line"/>
			<point x="1011" y="653" type="line"/>
			<point x="867" y="278" type="line"/>
			<point x="661" y="441" type="line"/>
			<point x="614" y="424"/>
			<point x="554" y="350"/>
			<point x="546" y="311" type="qcurve" smooth="yes"/>
			<point x="527" y="215"/>
			<point x="685" y="119"/>
			<point x="830" y="119" type="qcurve"/>
			<point x="989" y="119"/>
			<point x="1214" y="244"/>
			<point x="1278" y="316" type="qcurve"/>
			<point x="1336" y="252" type="line"/>
			<point x="1336" y="223" type="line"/>
			<point x="1220" y="120"/>
			<point x="842" y="-17"/>
		</contour>
	</outline>
	<anchor name="GRKtop" x="808" y="1000"/>
</glyph>
<glyph name="zeta" format="2">
	<unicode hex="03B6"/>
	<advance width="1341"/>
	<outline>
		<contour>
			<point x="929" y="-313" type="line"/>
			<point x="949" y="-41" type="line"/>
			<point x="827" y="-32" type="line" smooth="yes"/>
			<point x="265" y="9"/>
			<point x="-57" y="275"/>
			<point x="-17" y="464" type="qcurve" smooth="yes"/>
			<point x="17" y="626"/>
			<point x="449" y="948"/>
			<point x="900" y="1124" type="qcurve"/>
			<point x="898" y="1131" type="line"/>
			<point x="224" y="1045" type="line"/>
			<point x="203" y="1129" type="line"/>
			<point x="298" y="1527" type="line"/>
			<point x="1428" y="1500" type="line"/>
			<point x="1367" y="1180" type="line"/>
			<point x="872" y="827"/>
			<point x="646" y="682"/>
			<point x="625" y="573" type="qcurve" smooth="yes"/>
			<point x="603" y="463"/>
			<point x="785" y="365"/>
			<point x="1060" y="344" type="qcurve" smooth="yes"/>
			<point x="1177" y="335" type="line"/>
			<point x="1223" y="305" type="line"/>
			<point x="1026" y="-313" type="line"/>
		</contour>
	</outline>
</glyph>
<glyph name="iota" format="2">
	<unicode hex="03B9"/>
	<advance width="1002"/>
	<outline>
		<contour>
			<point x="89" y="-15" type="line"/>
			<point x="15" y="117" type="line"/>
			<point x="102" y="511" type="line"/>
			<point x="185" y="978" type="line"/>
			<point x="679" y="1000" type="line"/>
			<point x="724" y="1000" type="line"/>
			<point x="766" y="921" type="line"/>
			<point x="665" y="477" type="line"/>
			<point x="611" y="134" type="line"/>
			<point x="866" y="160" type="line"/>
			<point x="866" y="72" type="line"/>
		</contour>
	</outline>
	<anchor name="GRKtop" x="477" y="1000"/>
</glyph>
<glyph name="kappa" format="2">
	<unicode hex="03BA"/>
	<advance width="1910"/>
	<outline>
		<contour>
			<point x="47" y="0" type="line"/>
			<point x="149" y="490" type="line"/>
			<point x="236" y="978" type="line"/>
			<point x="731" y="1000" type="line"/>
			<point x="776" y="1000" type="line"/>
			<point x="818" y="921" type="line"/>
			<point x="720" y="490" type="line"/>
			<point x="642" y="0" type="line"/>
		</contour>
		<contour>
			<point x="591" y="204" type="line"/>
			<point x="618" y="342" type="line"/>
			<point x="1011" y="747" type="line" smooth="yes"/>
			<point x="1130" y="869"/>
			<point x="1408" y="1010"/>
			<point x="1740" y="1010" type="qcurve" smooth="yes"/>
			<point x="1807" y="1010" type="line"/>
			<point x="1825" y="977" type="line"/>
			<point x="1795" y="625" type="line"/>
			<point x="1290" y="649"/>
			<point x="1045" y="661"/>
			<point x="951" y="566" type="qcurve" smooth="yes"/>
		</contour>
		<contour>
			<point x="1086" y="-15" type="line"/>
			<point x="1044" y="76" type="line"/>
			<point x="811" y="489" type="line"/>
			<point x="1194" y="833" type="line"/>
			<point x="1616" y="134" type="line"/>
			<point x="1752" y="134" type="line"/>
			<point x="1754" y="47" type="line"/>
		</contour>
	</outline>
</glyph>
<glyph name="xi" format="2">
	<unicode hex="03BE"/>
	<advance width="1319"/>
	<outline>
		<contour>
			<point x="932" y="-313" type="line"/>
			<point x="951" y="-42" type="line"/>
			<point x="829" y="-33" type="line" smooth="yes"/>
			<point x="363" y="1"/>
			<point x="-49.7953488372" y="247"/>
			<point x="-7.7953488372" y="438" type="qcurve" smooth="yes"/>
			<point x="21.2046511628" y="569"/>
			<point x="261" y="742"/>
			<point x="437" y="777" type="qcurve"/>
			<point x="438" y="784" type="line"/>
			<point x="307" y="835"/>
			<point x="159" y="974"/>
			<point x="182" y="1081" type="qcurve" smooth="yes"/>
			<point x="194" y="1142"/>
			<point x="371" y="1247"/>
			<point x="538" y="1269" type="qcurve"/>
			<point x="534" y="1284" type="line"/>
			<point x="248" y="1245" type="line"/>
			<point x="227" y="1329" type="line"/>
			<point x="321.8952986448" y="1527" type="line"/>
			<point x="1431" y="1500" type="line"/>
			<point x="1369" y="1188" type="line"/>
			<point x="1007" y="1185"/>
			<point x="744" y="1087"/>
			<point x="723" y="995" type="qcurve" smooth="yes"/>
			<point x="709" y="932"/>
			<point x="769" y="845"/>
			<point x="822" y="825" type="qcurve"/>
			<point x="1312" y="1019" type="line"/>
			<point x="1331" y="983" type="line"/>
			<point x="1155" y="523" type="line"/>
			<point x="801" y="701" type="line"/>
			<point x="708" y="678"/>
			<point x="606" y="594"/>
			<point x="596" y="551" type="qcurve" smooth="yes"/>
			<point x="571" y="450"/>
			<point x="789" y="365"/>
			<point x="1101" y="341" type="qcurve" smooth="yes"/>
			<point x="1179" y="335" type="line"/>
			<point x="1225" y="305" type="line"/>
			<point x="1029" y="-313" type="line"/>
		</contour>
	</outline>
</glyph>
<glyph name="rho" format="2">
	<unicode hex="03C1"/>
	<advance width="1907"/>
	<outline>
		<contour>
			<point x="-43" y="-462" type="line"/>
			<point x="-130" y="-392" type="line"/>
			<point x="16" y="335" type="line"/>
			<point x="34" y="422" type="line" smooth="yes"/>
			<point x="110" y="779"/>
			<point x="663" y="1028"/>
			<point x="1036" y="1013" type="qcurve" smooth="yes"/>
			<point x="1462" y="996"/>
			<point x="1811" y="690"/>
			<point x="1767" y="477" type="qcurve" smooth="yes"/>
			<point x="1715" y="227"/>
			<point x="1196" y="-44"/>
			<point x="847" y="-17" type="qcurve" smooth="yes"/>
			<point x="754" y="-10"/>
			<point x="579" y="55"/>
			<point x="544" y="87" type="qcurve"/>
			<point x="451" y="-447" type="line"/>
		</contour>
		<contour>
			<point x="806" y="88" type="qcurve" smooth="yes"/>
			<point x="949" y="78"/>
			<point x="1142" y="297"/>
			<point x="1181" y="487" type="qcurve" smooth="yes"/>
			<point x="1217" y="659"/>
			<point x="1115" y="891"/>
			<point x="984" y="901" type="qcurve" smooth="yes"/>
			<point x="836" y="913"/>
			<point x="661" y="681"/>
			<point x="601" y="383" type="qcurve" smooth="yes"/>
			<point x="562" y="188" type="line"/>
			<point x="605" y="144"/>
			<point x="729" y="93"/>
		</contour>
	</outline>
</glyph>
<glyph name="finalsigma" format="2">
	<unicode hex="03C2"/>
	<advance width="1435"/>
	<outline>
		<contour>
			<point x="1043.7242888403" y="-313" type="line"/>
			<point x="1062.7242888403" y="-42" type="line"/>
			<point x="863.7242888403" y="-28" type="line" smooth="yes"/>
			<point x="296.7242888403" y="12"/>
			<point x="-48.2757111597" y="273"/>
			<point x="7.7242888403" y="502" type="qcurve" smooth="yes"/>
			<point x="66.7242888403" y="733"/>
			<point x="601.7242888403" y="1017"/>
			<point x="1000.7242888403" y="1017" type="qcurve"/>
			<point x="1211.7242888403" y="1017"/>
			<point x="1441.7242888403" y="927"/>
			<point x="1441.7242888403" y="836" type="qcurve" smooth="yes"/>
			<point x="1441.7242888403" y="759"/>
			<point x="1268.7242888403" y="653"/>
			<point x="1128.2037408951" y="626" type="qcurve"/>
			<point x="1105.2037408951" y="653" type="line"/>
			<point x="1105.2037408951" y="826" type="line" smooth="yes"/>
			<point x="1105.2037408951" y="851"/>
			<point x="1047.7242888403" y="888"/>
			<point x="987.7242888403" y="888" type="qcurve"/>
			<point x="843.7242888403" y="888"/>
			<point x="636" y="674"/>
			<point x="607" y="555" type="qcurve" smooth="yes"/>
			<point x="580" y="441"/>
			<point x="736" y="379"/>
			<point x="1180" y="343" type="qcurve" smooth="yes"/>
			<point x="1292" y="334" type="line"/>
			<point x="1338" y="304" type="line"/>
			<point x="1140.7242888403" y="-313" type="line"/>
		</contour>
	</outline>
</glyph>
<glyph name="sigma" format="2">
	<unicode hex="03C3"/>
	<advance width="1969"/>
	<outline>
		<contour>
			<point x="714" y="-15" type="qcurve" smooth="yes"/>
			<point x="383" y="6"/>
			<point x="-39" y="309"/>
			<point x="10" y="531" type="qcurve" smooth="yes"/>
			<point x="55" y="733"/>
			<point x="580" y="975"/>
			<point x="1068" y="988" type="qcurve" smooth="yes"/>
			<point x="1924" y="1010" type="line"/>
			<point x="1945" y="926" type="line"/>
			<point x="1850" y="628" type="line"/>
			<point x="1596" y="839" type="line"/>
			<point x="1590" y="833" type="line"/>
			<point x="1691" y="761"/>
			<point x="1769" y="573"/>
			<point x="1742" y="450" type="qcurve" smooth="yes"/>
			<point x="1683" y="190"/>
			<point x="1103" y="-39"/>
		</contour>
		<contour>
			<point x="774" y="94" type="qcurve" smooth="yes"/>
			<point x="916" y="83"/>
			<point x="1103" y="283"/>
			<point x="1133" y="421" type="qcurve" smooth="yes"/>
			<point x="1168" y="582"/>
			<point x="1121" y="777"/>
			<point x="1073" y="836" type="qcurve"/>
			<point x="1059" y="836" type="line" smooth="yes"/>
			<point x="840" y="836"/>
			<point x="632" y="658"/>
			<point x="599" y="503" type="qcurve" smooth="yes"/>
			<point x="559" y="311"/>
			<point x="666" y="102"/>
		</contour>
	</outline>
</glyph>
<glyph name="tau" format="2">
	<unicode hex="03C4"/>
	<advance width="1382"/>
	<outline>
		<contour>
			<point x="1283" y="528" type="line"/>
			<point x="-28" y="850" type="line"/>
			<point x="-26" y="931" type="line"/>
			<point x="142" y="1000" type="line"/>
			<point x="1357" y="1010" type="line"/>
			<point x="1378" y="926" type="line"/>
		</contour>
		<contour>
			<point x="274" y="-15" type="line"/>
			<point x="200" y="117" type="line"/>
			<point x="459" y="586" type="line"/>
			<point x="644" y="917" type="line"/>
			<point x="760" y="917" type="line"/>
			<point x="786" y="574" type="line"/>
			<point x="814" y="134" type="line"/>
			<point x="1069" y="160" type="line"/>
			<point x="1069" y="72" type="line"/>
		</contour>
	</outline>
</glyph>
<glyph name="upsilon" format="2">
	<unicode hex="03C5"/>
	<advance width="1858"/>
	<outline>
		<contour>
			<point x="757" y="-17" type="qcurve" smooth="yes"/>
			<point x="388" y="4"/>
			<point x="48" y="244"/>
			<point x="93" y="463" type="qcurve" smooth="yes"/>
			<point x="171" y="840" type="line"/>
			<point x="24" y="817" type="line"/>
			<point x="26" y="913" type="line"/>
			<point x="659" y="1000" type="line"/>
			<point x="704" y="1000" type="line"/>
			<point x="746" y="921" type="line"/>
			<point x="646" y="354" type="line" smooth="yes"/>
			<point x="624" y="229"/>
			<point x="722" y="127"/>
			<point x="819" y="127" type="qcurve" smooth="yes"/>
			<point x="954" y="127"/>
			<point x="1098" y="301"/>
			<point x="1129" y="446" type="qcurve" smooth="yes"/>
			<point x="1160" y="589"/>
			<point x="1135" y="842"/>
			<point x="1061" y="958" type="qcurve"/>
			<point x="1182" y="1018" type="line"/>
			<point x="1448" y="923"/>
			<point x="1754" y="626"/>
			<point x="1716" y="448" type="qcurve" smooth="yes"/>
			<point x="1666" y="233"/>
			<point x="1189" y="-41"/>
		</contour>
	</outline>
	<anchor name="GRKtop" x="921" y="1000"/>
</glyph>
<glyph name="phi" format="2">
  <advance width="2549"/>
  <unicode hex="03C6"/>
  <outline>
    <contour>
      <point x="821.7874251497005" y="-462" type="line"/>
      <point x="734.7874251497005" y="-392" type="line"/>
      <point x="824.7874251497005" y="56" type="line"/>
      <point x="829.7874251497005" y="56" type="line"/>
      <point x="945" y="617" type="line" smooth="yes"/>
      <point x="991" y="842"/>
      <point x="1423.7874251497005" y="1041"/>
      <point x="1740.7874251497005" y="1017" type="qcurve" smooth="yes"/>
      <point x="2066.7874251497005" y="998"/>
      <point x="2479" y="701"/>
      <point x="2429" y="455" type="qcurve" smooth="yes"/>
      <point x="2379" y="210"/>
      <point x="1657" y="-58"/>
      <point x="1074" y="-15" type="qcurve" smooth="yes"/>
      <point x="536" y="24"/>
      <point x="-30" y="329"/>
      <point x="26" y="613" type="qcurve" smooth="yes"/>
      <point x="58" y="772"/>
      <point x="459" y="1042"/>
      <point x="829" y="1068" type="qcurve"/>
      <point x="925.7874251497005" y="969" type="line"/>
      <point x="778" y="905"/>
      <point x="627.7874251497005" y="725"/>
      <point x="599.7874251497005" y="585" type="qcurve" smooth="yes"/>
      <point x="554.7874251497005" y="370"/>
      <point x="877.7874251497005" y="107"/>
      <point x="1150.7874251497005" y="93" type="qcurve" smooth="yes"/>
      <point x="1414.7874251497005" y="77"/>
      <point x="1796" y="255"/>
      <point x="1852" y="489" type="qcurve" smooth="yes"/>
      <point x="1882" y="611"/>
      <point x="1806" y="895"/>
      <point x="1701" y="903" type="qcurve" smooth="yes"/>
      <point x="1625" y="908"/>
      <point x="1534.7874251497005" y="767"/>
      <point x="1506.7874251497005" y="628" type="qcurve" smooth="yes"/>
      <point x="1392.7874251497005" y="56" type="line"/>
      <point x="1397.7874251497005" y="56" type="line"/>
      <point x="1315.7874251497005" y="-447" type="line"/>
    </contour>
  </outline>
</glyph>
<glyph name="psi" format="2">
	<unicode hex="03C8"/>
	<advance width="2557"/>
	<outline>
		<contour>
			<point x="850" y="-462" type="line"/>
			<point x="763" y="-392" type="line"/>
			<point x="895" y="56" type="line"/>
			<point x="900" y="56" type="line"/>
			<point x="1342" y="1398" type="line"/>
			<point x="1407" y="1422" type="line"/>
			<point x="1452" y="1422" type="line"/>
			<point x="1473" y="1382" type="line"/>
			<point x="1389" y="56" type="line"/>
			<point x="1394" y="56" type="line"/>
			<point x="1344" y="-447" type="line"/>
		</contour>
		<contour>
			<point x="1204" y="-17" type="qcurve"/>
			<point x="545" y="-13"/>
			<point x="45" y="227"/>
			<point x="95" y="471" type="qcurve" smooth="yes"/>
			<point x="171" y="840" type="line"/>
			<point x="24" y="817" type="line"/>
			<point x="26" y="913" type="line"/>
			<point x="659" y="1000" type="line"/>
			<point x="704" y="1000" type="line"/>
			<point x="746" y="921" type="line"/>
			<point x="657" y="421" type="line" smooth="yes"/>
			<point x="626" y="244"/>
			<point x="874" y="131"/>
			<point x="1219" y="123" type="qcurve" smooth="yes"/>
			<point x="1484" y="117"/>
			<point x="1802" y="280"/>
			<point x="1860" y="522" type="qcurve" smooth="yes"/>
			<point x="1888" y="642"/>
			<point x="1844" y="848"/>
			<point x="1775" y="958" type="qcurve"/>
			<point x="1896" y="1018" type="line"/>
			<point x="2098" y="944"/>
			<point x="2454" y="626"/>
			<point x="2412" y="432" type="qcurve" smooth="yes"/>
			<point x="2365" y="217"/>
			<point x="1811" y="-23"/>
		</contour>
	</outline>
</glyph>
<glyph name="omega" format="2">
  <advance width="2660"/>
  <unicode hex="03C9"/>
  <anchor x="1317" y="1000" name="GRKtop"/>
  <outline>
    <contour>
      <point x="607" y="-11" type="qcurve" smooth="yes"/>
      <point x="277" y="8"/>
      <point x="-45.898795180722914" y="264"/>
      <point x="-4.898795180722914" y="476" type="qcurve" smooth="yes"/>
      <point x="27.101204819277086" y="644"/>
      <point x="441.1012048192771" y="931"/>
      <point x="790.1012048192771" y="1018" type="qcurve"/>
      <point x="888.1012048192771" y="958" type="line"/>
      <point x="755.1012048192771" y="864"/>
      <point x="624" y="624"/>
      <point x="603" y="523" type="qcurve" smooth="yes"/>
      <point x="569" y="357"/>
      <point x="683" y="138"/>
      <point x="828" y="127" type="qcurve" smooth="yes"/>
      <point x="945" y="118"/>
      <point x="1105" y="224"/>
      <point x="1131" y="280" type="qcurve"/>
      <point x="969" y="688" type="line"/>
      <point x="1553" y="737" type="line"/>
      <point x="1584" y="712" type="line"/>
      <point x="1254" y="280" type="line"/>
      <point x="1249" y="250"/>
      <point x="1344" y="137"/>
      <point x="1482" y="128" type="qcurve" smooth="yes"/>
      <point x="1613" y="119"/>
      <point x="1819" y="266"/>
      <point x="1850" y="414" type="qcurve" smooth="yes"/>
      <point x="1881" y="560"/>
      <point x="1849" y="856"/>
      <point x="1757" y="958" type="qcurve"/>
      <point x="1878" y="1018" type="line"/>
      <point x="2193" y="908"/>
      <point x="2485" y="578"/>
      <point x="2439" y="382" type="qcurve" smooth="yes"/>
      <point x="2390" y="170"/>
      <point x="1875" y="-39"/>
      <point x="1593" y="-18" type="qcurve" smooth="yes"/>
      <point x="1411" y="-4"/>
      <point x="1229" y="98"/>
      <point x="1182" y="183" type="qcurve"/>
      <point x="1175" y="183" type="line"/>
      <point x="1095" y="90"/>
      <point x="835" y="-22"/>
    </contour>
  </outline>
</glyph>
<glyph name="ve" format="2">
	<unicode hex="0432"/>
	<advance width="1881"/>
	<outline>
		<contour>
			<point x="804.3259911894" y="-17" type="qcurve" smooth="yes"/>
			<point x="303.3259911894" y="-17"/>
			<point x="-40.6740088106" y="280"/>
			<point x="14.3259911894" y="504" type="qcurve" smooth="yes"/>
			<point x="72.3259911894" y="741"/>
			<point x="634.3259911894" y="1017"/>
			<point x="1034.3259911894" y="1017" type="qcurve" smooth="yes"/>
			<point x="1441.3259911894" y="1017"/>
			<point x="1737.3259911894" y="877"/>
			<point x="1716.3259911894" y="767" type="qcurve" smooth="yes"/>
			<point x="1699.3259911894" y="679"/>
			<point x="1348.3259911894" y="542"/>
			<point x="1073.3259911894" y="542" type="qcurve"/>
			<point x="1072.3259911894" y="538" type="line"/>
			<point x="1431.3259911894" y="538"/>
			<point x="1705.3259911894" y="388"/>
			<point x="1681.3259911894" y="273" type="qcurve" smooth="yes"/>
			<point x="1653.3259911894" y="140"/>
			<point x="1250.3259911894" y="-17"/>
		</contour>
		<contour>
			<point x="832.3259911894" y="98" type="qcurve" smooth="yes"/>
			<point x="943.3259911894" y="98"/>
			<point x="1071.3259911894" y="200"/>
			<point x="1088.3259911894" y="290" type="qcurve" smooth="yes"/>
			<point x="1104.3259911894" y="375"/>
			<point x="1010.3259911894" y="478"/>
			<point x="876.3259911894" y="471" type="qcurve" smooth="yes"/>
			<point x="518.3259911894" y="452" type="line"/>
			<point x="537.3259911894" y="548" type="line"/>
			<point x="876.3259911894" y="571" type="line" smooth="yes"/>
			<point x="983.3259911894" y="578"/>
			<point x="1100.3259911894" y="658"/>
			<point x="1116.3259911894" y="736" type="qcurve" smooth="yes"/>
			<point x="1131.3259911894" y="811"/>
			<point x="1058.3259911894" y="899"/>
			<point x="979.3259911894" y="899" type="qcurve" smooth="yes"/>
			<point x="852.3259911894" y="899"/>
			<point x="650.3259911894" y="688"/>
			<point x="606.3259911894" y="497" type="qcurve" smooth="yes"/>
			<point x="567.3259911894" y="329"/>
			<point x="673.3259911894" y="98"/>
		</contour>
	</outline>
</glyph>
<glyph name="ghe" format="2">
	<unicode hex="0433"/>
	<advance width="1280"/>
	<outline>
		<contour>
			<point x="551" y="901" type="qcurve" smooth="yes"/>
			<point x="451" y="901"/>
			<point x="265" y="791"/>
			<point x="208" y="718" type="qcurve"/>
			<point x="150" y="782" type="line"/>
			<point x="150" y="811" type="line"/>
			<point x="216" y="899"/>
			<point x="451" y="1013"/>
			<point x="621" y="1018" type="qcurve" smooth="yes"/>
			<point x="877" y="1025"/>
			<point x="1160" y="850"/>
			<point x="1160" y="704" type="qcurve" smooth="yes"/>
			<point x="1160" y="587"/>
			<point x="997" y="439"/>
			<point x="789" y="364" type="qcurve" smooth="yes"/>
			<point x="639" y="310"/>
			<point x="540" y="254"/>
			<point x="540" y="201" type="qcurve" smooth="yes"/>
			<point x="540" y="155"/>
			<point x="624" y="110"/>
			<point x="706" y="110" type="qcurve" smooth="yes"/>
			<point x="836" y="110"/>
			<point x="1009" y="222"/>
			<point x="1077" y="316" type="qcurve"/>
			<point x="1135" y="252" type="line"/>
			<point x="1135" y="223" type="line"/>
			<point x="1069" y="125"/>
			<point x="806" y="-17"/>
			<point x="632" y="-17" type="qcurve" smooth="yes"/>
			<point x="317" y="-17"/>
			<point x="24" y="194"/>
			<point x="24" y="346" type="qcurve" smooth="yes"/>
			<point x="24" y="457"/>
			<point x="144" y="600"/>
			<point x="279" y="652" type="qcurve" smooth="yes"/>
			<point x="449" y="716"/>
			<point x="635" y="802"/>
			<point x="635" y="845" type="qcurve" smooth="yes"/>
			<point x="635" y="871"/>
			<point x="590" y="901"/>
		</contour>
	</outline>
	<anchor name="top" x="651" y="1000"/>
	<anchor name="center" x="549" y="530"/>
</glyph>
<glyph name="de" format="2">
  <advance width="1979"/>
  <unicode hex="0434"/>
  <outline>
    <contour>
      <point x="17.740458015266995" y="571" type="qcurve" smooth="yes"/>
      <point x="62.740458015266995" y="778"/>
      <point x="496.740458015267" y="1039"/>
      <point x="816.740458015267" y="1020" type="qcurve" smooth="yes"/>
      <point x="1035.740458015267" y="1007"/>
      <point x="1307.740458015267" y="839"/>
      <point x="1333.740458015267" y="730" type="qcurve"/>
      <point x="1297.740458015267" y="598" type="line"/>
      <point x="1259.740458015267" y="717"/>
      <point x="1102.740458015267" y="901"/>
      <point x="978.740458015267" y="901" type="qcurve" smooth="yes"/>
      <point x="844.740458015267" y="901"/>
      <point x="657.740458015267" y="694"/>
      <point x="620.740458015267" y="525" type="qcurve" smooth="yes"/>
      <point x="584.740458015267" y="359"/>
      <point x="683.740458015267" y="103"/>
      <point x="814.740458015267" y="93" type="qcurve" smooth="yes"/>
      <point x="958.740458015267" y="84"/>
      <point x="1134.740458015267" y="294"/>
      <point x="1189.740458015267" y="488" type="qcurve" smooth="yes"/>
      <point x="1338.740458015267" y="1049"/>
      <point x="1205.740458015267" y="1454"/>
      <point x="948.740458015267" y="1466" type="qcurve" smooth="yes"/>
      <point x="837.740458015267" y="1471"/>
      <point x="604.740458015267" y="1406"/>
      <point x="494.740458015267" y="1326" type="qcurve"/>
      <point x="448.740458015267" y="1326" type="line"/>
      <point x="448.740458015267" y="1443" type="line"/>
      <point x="550.740458015267" y="1505"/>
      <point x="841.740458015267" y="1585"/>
      <point x="1033.740458015267" y="1581" type="qcurve" smooth="yes"/>
      <point x="1527.740458015267" y="1571"/>
      <point x="1944.740458015267" y="1057"/>
      <point x="1809.740458015267" y="620" type="qcurve"/>
      <point x="1722.740458015267" y="273"/>
      <point x="1165.740458015267" y="-20"/>
      <point x="773.740458015267" y="-17" type="qcurve" smooth="yes"/>
      <point x="361.740458015267" y="-14"/>
      <point x="-42.259541984733005" y="299"/>
    </contour>
  </outline>
</glyph>
<glyph name="ze" format="2">
	<unicode hex="0437"/>
	<advance width="1555"/>
	<outline>
		<contour>
			<point x="475" y="100" type="qcurve" smooth="yes"/>
			<point x="593" y="100"/>
			<point x="750" y="195"/>
			<point x="767" y="290" type="qcurve" smooth="yes"/>
			<point x="783" y="377"/>
			<point x="693" y="480"/>
			<point x="555" y="469" type="qcurve" smooth="yes"/>
			<point x="401" y="457" type="line"/>
			<point x="424" y="566" type="line"/>
			<point x="555" y="573" type="line" smooth="yes"/>
			<point x="666" y="579"/>
			<point x="782" y="657"/>
			<point x="793" y="723" type="qcurve" smooth="yes"/>
			<point x="806" y="800"/>
			<point x="716" y="877"/>
			<point x="575" y="881" type="qcurve" smooth="yes"/>
			<point x="452" y="884"/>
			<point x="237" y="805"/>
			<point x="152" y="732" type="qcurve"/>
			<point x="94" y="796" type="line"/>
			<point x="94" y="825" type="line"/>
			<point x="186" y="910"/>
			<point x="520" y="1021"/>
			<point x="760" y="1018" type="qcurve" smooth="yes"/>
			<point x="1111" y="1014"/>
			<point x="1410" y="856"/>
			<point x="1391" y="747" type="qcurve" smooth="yes"/>
			<point x="1382" y="687"/>
			<point x="1211" y="574"/>
			<point x="952" y="542" type="qcurve"/>
			<point x="951" y="538" type="line"/>
			<point x="1173" y="531"/>
			<point x="1379" y="392"/>
			<point x="1361" y="282" type="qcurve" smooth="yes"/>
			<point x="1335" y="150"/>
			<point x="883" y="-17"/>
			<point x="457" y="-17" type="qcurve" smooth="yes"/>
			<point x="200" y="-17"/>
			<point x="-19" y="68"/>
			<point x="-19" y="156" type="qcurve"/>
			<point x="-19" y="229"/>
			<point x="159" y="339"/>
			<point x="294" y="363" type="qcurve"/>
			<point x="317" y="336" type="line"/>
			<point x="317" y="174" type="line" smooth="yes"/>
			<point x="317" y="144"/>
			<point x="384" y="100"/>
		</contour>
	</outline>
	<anchor name="bottom" x="566" y="0"/>
</glyph>
<glyph name="ka" format="2">
  <advance width="1932"/>
  <unicode hex="043A"/>
  <anchor x="1022.0" y="1000" name="top"/>
  <anchor x="1849" y="133" name="cy_descender"/>
  <outline>
    <contour>
      <point x="34" y="56" type="line"/>
      <point x="137" y="527" type="line"/>
      <point x="189" y="820" type="line"/>
      <point x="47" y="816" type="line"/>
      <point x="46" y="915" type="line"/>
      <point x="714" y="1003" type="line"/>
      <point x="759" y="1001" type="line"/>
      <point x="817" y="930" type="line"/>
      <point x="735" y="502" type="line"/>
      <point x="655" y="83" type="line"/>
      <point x="686" y="0" type="line"/>
      <point x="76" y="-23" type="line"/>
    </contour>
    <contour>
      <point x="1660" y="133" type="line"/>
      <point x="1784" y="133" type="line"/>
      <point x="1784" y="45" type="line"/>
      <point x="1192" y="-6" type="line" smooth="yes"/>
      <point x="1146" y="-10"/>
      <point x="1096" y="37"/>
      <point x="1027" y="115" type="qcurve" smooth="yes"/>
      <point x="726" y="455" type="line"/>
      <point x="1057" y="760" type="line"/>
    </contour>
    <contour>
      <point x="1323" y="668" type="line"/>
      <point x="1323" y="794"/>
      <point x="1322" y="865"/>
      <point x="1301" y="865" type="qcurve" smooth="yes"/>
      <point x="1285" y="865"/>
      <point x="1235" y="831"/>
      <point x="1166" y="772" type="qcurve" smooth="yes"/>
      <point x="618" y="303" type="line"/>
      <point x="646" y="457" type="line"/>
      <point x="1099" y="838" type="line" smooth="yes"/>
      <point x="1231" y="949"/>
      <point x="1385" y="1013"/>
      <point x="1476" y="1013" type="qcurve" smooth="yes"/>
      <point x="1569" y="1013"/>
      <point x="1658" y="950"/>
      <point x="1658" y="900" type="qcurve" smooth="yes"/>
      <point x="1658" y="808"/>
      <point x="1490" y="668"/>
      <point x="1358" y="668" type="qcurve" smooth="yes"/>
    </contour>
  </outline>
</glyph>
<glyph name="el" format="2">
	<unicode hex="043B"/>
	<advance width="1620"/>
	<outline>
		<contour>
			<point x="1306" y="134" type="line"/>
			<point x="1448" y="134" type="line"/>
			<point x="1450" y="47" type="line"/>
			<point x="796" y="-21" type="line"/>
			<point x="754" y="70" type="line"/>
			<point x="723" y="456" type="line"/>
			<point x="686" y="828" type="line"/>
			<point x="508" y="364" type="line" smooth="yes"/>
			<point x="445" y="200"/>
			<point x="286" y="-19"/>
			<point x="157" y="-19" type="qcurve" smooth="yes"/>
			<point x="52" y="-19"/>
			<point x="-60" y="90"/>
			<point x="-60" y="178" type="qcurve" smooth="yes"/>
			<point x="-60" y="258"/>
			<point x="48" y="374"/>
			<point x="160" y="374" type="qcurve" smooth="yes"/>
			<point x="232" y="374"/>
			<point x="399" y="362"/>
			<point x="434" y="451" type="qcurve" smooth="yes"/>
			<point x="583" y="829" type="line"/>
			<point x="381" y="813" type="line"/>
			<point x="384" y="910" type="line"/>
			<point x="1136" y="1000" type="line"/>
			<point x="1196" y="1000" type="line"/>
			<point x="1235" y="914" type="line"/>
			<point x="1271" y="483" type="line"/>
		</contour>
	</outline>
</glyph>
<glyph name="en" format="2">
	<unicode hex="043D"/>
	<advance width="1987"/>
	<outline>
		<contour>
			<point x="34" y="56" type="line"/>
			<point x="137" y="527" type="line"/>
			<point x="189" y="820" type="line"/>
			<point x="47" y="816" type="line"/>
			<point x="46" y="915" type="line"/>
			<point x="679" y="1003" type="line"/>
			<point x="724" y="1001" type="line"/>
			<point x="788" y="930" type="line"/>
			<point x="704" y="528" type="line"/>
			<point x="620" y="83" type="line"/>
			<point x="651" y="0" type="line"/>
			<point x="76" y="-23" type="line"/>
		</contour>
		<contour>
			<point x="1104" y="-21" type="line"/>
			<point x="1062" y="70" type="line"/>
			<point x="1151" y="524" type="line"/>
			<point x="1220" y="911" type="line"/>
			<point x="1189" y="994" type="line"/>
			<point x="1764" y="1021" type="line"/>
			<point x="1806" y="942" type="line"/>
			<point x="1718" y="522" type="line"/>
			<point x="1656" y="134" type="line"/>
			<point x="1799" y="134" type="line"/>
			<point x="1801" y="47" type="line"/>
		</contour>
		<contour>
			<point x="629" y="547" type="line"/>
			<point x="941" y="563" type="line"/>
			<point x="1241" y="584" type="line"/>
			<point x="1221" y="478" type="line"/>
			<point x="921" y="461" type="line"/>
			<point x="609" y="441" type="line"/>
		</contour>
	</outline>
	<anchor name="cy_descender" x="1829" y="134"/>
</glyph>
<glyph name="ef" format="2">
  <advance width="2556"/>
  <unicode hex="0444"/>
  <outline>
    <contour>
      <point x="1506.1075268817203" y="567" type="line"/>
      <point x="1402.1075268817203" y="52" type="line"/>
      <point x="1402.1075268817203" y="36" type="line"/>
      <point x="1331.1075268817203" y="-316" type="line"/>
      <point x="1456.1075268817203" y="-356" type="line"/>
      <point x="1428.1075268817203" y="-428" type="line"/>
      <point x="847.1075268817204" y="-462" type="line"/>
      <point x="760.1075268817204" y="-392" type="line"/>
      <point x="848.1075268817204" y="48" type="line"/>
      <point x="853.1075268817204" y="60" type="line"/>
      <point x="957.1075268817204" y="576" type="line"/>
      <point x="1028.1075268817203" y="962" type="line"/>
      <point x="1027.1075268817203" y="974" type="line"/>
      <point x="1108.1075268817203" y="1408" type="line"/>
      <point x="984.1075268817204" y="1500" type="line"/>
      <point x="1012.1075268817204" y="1572" type="line"/>
      <point x="1613.1075268817203" y="1606" type="line"/>
      <point x="1700.1075268817203" y="1536" type="line"/>
      <point x="1587.1075268817203" y="962" type="line"/>
      <point x="1582.1075268817203" y="950" type="line"/>
    </contour>
    <contour>
      <point x="1136.1075268817203" y="89" type="qcurve" smooth="yes"/>
      <point x="1514.1075268817203" y="88"/>
      <point x="1837.1075268817203" y="399"/>
      <point x="1837.1075268817203" y="597" type="qcurve" smooth="yes"/>
      <point x="1837.1075268817203" y="732"/>
      <point x="1569.1075268817203" y="892"/>
      <point x="1332.1075268817203" y="904" type="qcurve" smooth="yes"/>
      <point x="937.1075268817204" y="921"/>
      <point x="597.1075268817204" y="642"/>
      <point x="597.1075268817204" y="425" type="qcurve"/>
      <point x="597.1075268817204" y="243"/>
      <point x="851.1075268817204" y="89"/>
    </contour>
    <contour>
      <point x="1117.1075268817203" y="-17" type="qcurve" smooth="yes"/>
      <point x="449.10752688172045" y="-14"/>
      <point x="-5.892473118279554" y="222"/>
      <point x="-0.892473118279554" y="445" type="qcurve" smooth="yes"/>
      <point x="4.107526881720446" y="703"/>
      <point x="590.1075268817204" y="1027"/>
      <point x="1350.1075268817203" y="1026" type="qcurve" smooth="yes"/>
      <point x="1901.1075268817203" y="1024"/>
      <point x="2429.1075268817203" y="816"/>
      <point x="2434.1075268817203" y="608" type="qcurve" smooth="yes"/>
      <point x="2440.1075268817203" y="295"/>
      <point x="1816.1075268817203" y="-27"/>
    </contour>
  </outline>
</glyph>
<glyph name="ya" format="2">
  <advance width="1701"/>
  <unicode hex="044F"/>
  <anchor x="836.0" y="1000" name="top"/>
  <outline>
    <contour>
      <point x="194" y="-19" type="qcurve" smooth="yes"/>
      <point x="307" y="-19"/>
      <point x="547" y="134"/>
      <point x="668" y="260" type="qcurve" smooth="yes"/>
      <point x="867" y="466" type="line"/>
      <point x="777" y="70" type="line"/>
      <point x="819" y="-21" type="line"/>
      <point x="1510" y="47" type="line"/>
      <point x="1508" y="134" type="line"/>
      <point x="1365" y="134" type="line"/>
      <point x="1427" y="506" type="line"/>
      <point x="1506" y="837" type="line"/>
      <point x="1460" y="1020" type="line"/>
      <point x="1414" y="1020" type="line"/>
      <point x="927" y="967" type="line"/>
      <point x="907" y="978"/>
      <point x="853" y="990"/>
      <point x="834" y="991" type="qcurve" smooth="yes"/>
      <point x="521" y="1011"/>
      <point x="147" y="757"/>
      <point x="147" y="582" type="qcurve"/>
      <point x="147" y="432"/>
      <point x="376" y="316"/>
      <point x="501" y="316" type="qcurve" smooth="yes"/>
      <point x="537" y="316"/>
      <point x="601" y="333"/>
      <point x="632" y="357" type="qcurve"/>
      <point x="637" y="351" type="line"/>
      <point x="600" y="319" type="line" smooth="yes"/>
      <point x="491" y="225"/>
      <point x="260" y="375"/>
      <point x="178" y="375" type="qcurve" smooth="yes"/>
      <point x="80" y="375"/>
      <point x="-34" y="264"/>
      <point x="-34" y="179" type="qcurve" smooth="yes"/>
      <point x="-34" y="90"/>
      <point x="82" y="-19"/>
    </contour>
    <contour>
      <point x="907" y="709" type="line" smooth="yes"/>
      <point x="875" y="576"/>
      <point x="690" y="436"/>
      <point x="604" y="436" type="qcurve" smooth="yes"/>
      <point x="552" y="436"/>
      <point x="498" y="498"/>
      <point x="498" y="557" type="qcurve" smooth="yes"/>
      <point x="498" y="682"/>
      <point x="674" y="852"/>
      <point x="805" y="852" type="qcurve" smooth="yes"/>
      <point x="860" y="852"/>
      <point x="920" y="816"/>
      <point x="923" y="786" type="qcurve"/>
    </contour>
  </outline>
</glyph>
<glyph name="ieukran" format="2">
	<unicode hex="0454"/>
	<advance width="1494"/>
	<outline>
		<contour>
			<point x="532.2651933702" y="540" type="line"/>
			<point x="1013.2651933702" y="563" type="line"/>
			<point x="993.2651933702" y="458" type="line"/>
			<point x="512.2651933702" y="440" type="line"/>
		</contour>
		<contour>
			<point x="1.2651933702" y="453" type="qcurve" smooth="yes"/>
			<point x="74.2651933702" y="751"/>
			<point x="642.2651933702" y="1017"/>
			<point x="931.2651933702" y="1017" type="qcurve" smooth="yes"/>
			<point x="1238.2651933702" y="1017"/>
			<point x="1449.2651933702" y="920"/>
			<point x="1449.2651933702" y="846" type="qcurve" smooth="yes"/>
			<point x="1449.2651933702" y="769"/>
			<point x="1278.2651933702" y="686"/>
			<point x="1136.2651933702" y="658" type="qcurve"/>
			<point x="1113.2651933702" y="685" type="line"/>
			<point x="1113.2651933702" y="826" type="line" smooth="yes"/>
			<point x="1113.2651933702" y="851"/>
			<point x="1056.2651933702" y="888"/>
			<point x="995.2651933702" y="888" type="qcurve" smooth="yes"/>
			<point x="861.2651933702" y="888"/>
			<point x="647.2651933702" y="688"/>
			<point x="603.2651933702" y="497" type="qcurve" smooth="yes"/>
			<point x="565.2651933702" y="332"/>
			<point x="682.2651933702" y="119"/>
			<point x="868.2651933702" y="119" type="qcurve" smooth="yes"/>
			<point x="1015.2651933702" y="119"/>
			<point x="1235.2651933702" y="220"/>
			<point x="1326.2651933702" y="316" type="qcurve"/>
			<point x="1384.2651933702" y="252" type="line"/>
			<point x="1384.2651933702" y="223" type="line"/>
			<point x="1247.2651933702" y="104"/>
			<point x="892.2651933702" y="-17"/>
			<point x="605.2651933702" y="-17" type="qcurve" smooth="yes"/>
			<point x="216.2651933702" y="-17"/>
			<point x="-47.7348066298" y="250"/>
		</contour>
	</outline>
</glyph>
<glyph name="lje" format="2">
  <advance width="2450"/>
  <unicode hex="0459"/>
  <outline>
    <contour>
      <point x="721" y="333" type="qcurve" smooth="yes"/>
      <point x="712" y="456" type="line"/>
      <point x="675" y="828" type="line"/>
      <point x="497" y="364" type="line" smooth="yes"/>
      <point x="445" y="228"/>
      <point x="284" y="-19"/>
      <point x="149" y="-19" type="qcurve" smooth="yes"/>
      <point x="46" y="-19"/>
      <point x="-71" y="84"/>
      <point x="-71" y="176" type="qcurve" smooth="yes"/>
      <point x="-71" y="255"/>
      <point x="32" y="374"/>
      <point x="144" y="374" type="qcurve" smooth="yes"/>
      <point x="258" y="374"/>
      <point x="389" y="364"/>
      <point x="432" y="473" type="qcurve" smooth="yes"/>
      <point x="572" y="829" type="line"/>
      <point x="403" y="819" type="line"/>
      <point x="406" y="916" type="line"/>
      <point x="1126" y="1000" type="line"/>
      <point x="1186" y="1000" type="line"/>
      <point x="1225" y="914" type="line"/>
      <point x="1261" y="483" type="line"/>
      <point x="1281" y="279" type="line" smooth="yes"/>
      <point x="1291" y="178"/>
      <point x="1365" y="88"/>
      <point x="1454" y="88" type="qcurve" smooth="yes"/>
      <point x="1540" y="88"/>
      <point x="1671" y="209"/>
      <point x="1688" y="312" type="qcurve" smooth="yes"/>
      <point x="1709" y="439"/>
      <point x="1585" y="547"/>
      <point x="1450" y="532" type="qcurve" smooth="yes"/>
      <point x="1188" y="503" type="line"/>
      <point x="1174" y="603" type="line"/>
      <point x="1521" y="642" type="line" smooth="yes"/>
      <point x="1947" y="690"/>
      <point x="2305" y="479"/>
      <point x="2272" y="309" type="qcurve" smooth="yes"/>
      <point x="2242" y="177"/>
      <point x="1852" y="-17"/>
      <point x="1389" y="-21" type="qcurve"/>
      <point x="983" y="-19"/>
      <point x="735" y="142"/>
    </contour>
  </outline>
</glyph>
<glyph name="cheverticalstroke-cy" format="2">
	<unicode hex="04B9"/>
	<advance width="1956"/>
	<outline>
		<contour>
			<point x="116" y="586" type="qcurve" smooth="yes"/>
			<point x="167" y="822" type="line"/>
			<point x="25" y="819" type="line"/>
			<point x="27" y="915" type="line"/>
			<point x="661" y="1002" type="line"/>
			<point x="710" y="1002" type="line"/>
			<point x="752" y="923" type="line"/>
			<point x="690" y="617" type="line" smooth="yes"/>
			<point x="673" y="534"/>
			<point x="718" y="442"/>
			<point x="797" y="442" type="qcurve" smooth="yes"/>
			<point x="818" y="442"/>
			<point x="860" y="448"/>
			<point x="880" y="453" type="qcurve"/>
			<point x="908" y="453" type="line"/>
			<point x="994" y="483"/>
			<point x="1158" y="631"/>
			<point x="1233" y="730" type="qcurve"/>
			<point x="1208" y="592" type="line"/>
			<point x="1144" y="506"/>
			<point x="976" y="360"/>
			<point x="886" y="325" type="qcurve"/>
			<point x="859" y="325" type="line"/>
			<point x="832" y="316"/>
			<point x="716" y="307"/>
			<point x="630" y="307" type="qcurve" smooth="yes"/>
			<point x="308" y="307"/>
			<point x="87" y="452"/>
		</contour>
		<contour>
			<point x="1070" y="-21" type="line"/>
			<point x="1028" y="70" type="line"/>
			<point x="1118" y="524" type="line"/>
			<point x="1186" y="911" type="line"/>
			<point x="1155" y="994" type="line"/>
			<point x="1733" y="1021" type="line"/>
			<point x="1775" y="942" type="line"/>
			<point x="1687" y="522" type="line"/>
			<point x="1625" y="134" type="line"/>
			<point x="1768" y="134" type="line"/>
			<point x="1770" y="47" type="line"/>
		</contour>
		<contour>
			<point x="1000" y="732" type="line"/>
			<point x="885" y="140" type="line"/>
			<point x="770" y="140" type="line"/>
			<point x="885" y="732" type="line"/>
		</contour>
	</outline>
</glyph>
<glyph name="dagger" format="2">
  <advance width="968"/>
  <unicode hex="2020"/>
  <outline>
    <contour>
      <point x="251" y="-540" type="line"/>
      <point x="38" y="-58" type="line"/>
      <point x="389" y="550" type="line"/>
      <point x="436" y="830" type="line"/>
      <point x="414" y="1438" type="line"/>
      <point x="573" y="1503" type="line"/>
      <point x="653" y="1506" type="line"/>
      <point x="784" y="1438" type="line"/>
      <point x="556" y="830" type="line"/>
      <point x="509" y="550" type="line"/>
      <point x="644" y="-58" type="line"/>
      <point x="271" y="-540" type="line"/>
    </contour>
    <contour>
      <point x="72" y="740" type="line"/>
      <point x="144" y="1112" type="line"/>
      <point x="522" y="992" type="line"/>
      <point x="968" y="1112" type="line"/>
      <point x="896" y="740" type="line"/>
      <point x="495" y="856" type="line"/>
    </contour>
  </outline>
</glyph>
<glyph name="daggerdbl" format="2">
  <advance width="996"/>
  <unicode hex="2021"/>
  <outline>
    <contour>
      <point x="271" y="-540" type="line"/>
      <point x="58" y="-58" type="line"/>
      <point x="409" y="550" type="line"/>
      <point x="456" y="830" type="line"/>
      <point x="434" y="1438" type="line"/>
      <point x="593" y="1503" type="line"/>
      <point x="673" y="1506" type="line"/>
      <point x="804" y="1438" type="line"/>
      <point x="576" y="830" type="line"/>
      <point x="529" y="550" type="line"/>
      <point x="664" y="-58" type="line"/>
      <point x="291" y="-540" type="line"/>
    </contour>
    <contour>
      <point x="92" y="740" type="line"/>
      <point x="164" y="1112" type="line"/>
      <point x="542" y="992" type="line"/>
      <point x="988" y="1112" type="line"/>
      <point x="916" y="740" type="line"/>
      <point x="515" y="856" type="line"/>
    </contour>
    <contour>
      <point x="16" y="311" type="line"/>
      <point x="88" y="683" type="line"/>
      <point x="466" y="563" type="line"/>
      <point x="912" y="683" type="line"/>
      <point x="840" y="311" type="line"/>
      <point x="439" y="427" type="line"/>
    </contour>
  </outline>
</glyph>
<glyph name="guilsinglleft" format="2">
	<unicode hex="2039"/>
	<advance width="831"/>
	<outline>
		<contour>
			<point x="29" y="624" type="line"/>
			<point x="114" y="670"/>
			<point x="634" y="952"/>
			<point x="713" y="993" type="qcurve" smooth="yes"/>
			<point x="772" y="1023"/>
			<point x="832" y="933"/>
			<point x="779" y="877" type="qcurve" smooth="yes"/>
			<point x="710" y="803"/>
			<point x="567" y="666"/>
			<point x="495" y="599" type="qcurve"/>
			<point x="530" y="533"/>
			<point x="617" y="379"/>
			<point x="662" y="294" type="qcurve"/>
			<point x="692" y="240"/>
			<point x="622" y="178"/>
			<point x="559" y="213" type="qcurve" smooth="yes"/>
			<point x="499" y="247"/>
			<point x="87" y="536"/>
			<point x="21" y="584" type="qcurve"/>
		</contour>
	</outline>
</glyph>
<glyph name="guilsinglright" format="2">
	<unicode hex="203A"/>
	<advance width="831"/>
	<outline>
		<contour>
			<point x="805" y="577" type="line"/>
			<point x="720" y="531"/>
			<point x="200" y="249"/>
			<point x="121" y="208" type="qcurve" smooth="yes"/>
			<point x="62" y="178"/>
			<point x="2" y="268"/>
			<point x="55" y="324" type="qcurve" smooth="yes"/>
			<point x="124" y="398"/>
			<point x="267" y="535"/>
			<point x="339" y="602" type="qcurve"/>
			<point x="304" y="668"/>
			<point x="217" y="822"/>
			<point x="172" y="907" type="qcurve"/>
			<point x="142" y="961"/>
			<point x="212" y="1023"/>
			<point x="275" y="988" type="qcurve" smooth="yes"/>
			<point x="335" y="954"/>
			<point x="747" y="665"/>
			<point x="813" y="617" type="qcurve"/>
		</contour>
	</outline>
</glyph>
<glyph name="f_f" format="2">
  <advance width="2123"/>
  <unicode hex="FB00"/>
  <outline>
    <contour>
      <point x="-352" y="-405" type="line" smooth="yes"/>
      <point x="-342" y="-305" type="line"/>
      <point x="-208" y="-303" type="line" smooth="yes"/>
      <point x="-90" y="-301"/>
      <point x="15" y="-155"/>
      <point x="69" y="147" type="qcurve" smooth="yes"/>
      <point x="204" y="905" type="line"/>
      <point x="216" y="942" type="line"/>
      <point x="271" y="1203" type="line" smooth="yes"/>
      <point x="303" y="1354"/>
      <point x="649" y="1516"/>
      <point x="925" y="1516" type="qcurve" smooth="yes"/>
      <point x="1107" y="1516"/>
      <point x="1317" y="1445"/>
      <point x="1317" y="1395" type="qcurve" smooth="yes"/>
      <point x="1317" y="1354"/>
      <point x="1177" y="1303"/>
      <point x="1106" y="1303" type="qcurve" smooth="yes"/>
      <point x="1090" y="1303"/>
      <point x="1084" y="1312"/>
      <point x="1084" y="1330" type="qcurve" smooth="yes"/>
      <point x="1084" y="1357"/>
      <point x="1041" y="1386"/>
      <point x="1007" y="1386" type="qcurve" smooth="yes"/>
      <point x="946" y="1386"/>
      <point x="852" y="1297"/>
      <point x="837" y="1197" type="qcurve" smooth="yes"/>
      <point x="799" y="938" type="line"/>
      <point x="798" y="913" type="line"/>
      <point x="667" y="214" type="line" smooth="yes"/>
      <point x="584" y="-231"/>
      <point x="134" y="-447"/>
      <point x="-167" y="-447" type="qcurve"/>
    </contour>
    <contour>
      <point x="653" y="-317" type="line" smooth="yes"/>
      <point x="663" y="-217" type="line"/>
      <point x="797" y="-215" type="line" smooth="yes"/>
      <point x="915" y="-213"/>
      <point x="1020" y="-67"/>
      <point x="1074" y="235" type="qcurve" smooth="yes"/>
      <point x="1193" y="905" type="line"/>
      <point x="1205" y="942" type="line"/>
      <point x="1272" y="1269" type="line" smooth="yes"/>
      <point x="1300" y="1406"/>
      <point x="1639" y="1582"/>
      <point x="1926" y="1582" type="qcurve" smooth="yes"/>
      <point x="2109" y="1582"/>
      <point x="2319" y="1511"/>
      <point x="2319" y="1461" type="qcurve" smooth="yes"/>
      <point x="2319" y="1420"/>
      <point x="2178" y="1369"/>
      <point x="2108" y="1369" type="qcurve" smooth="yes"/>
      <point x="2092" y="1369"/>
      <point x="2086" y="1378"/>
      <point x="2086" y="1396" type="qcurve" smooth="yes"/>
      <point x="2086" y="1423"/>
      <point x="2043" y="1452"/>
      <point x="2009" y="1452" type="qcurve" smooth="yes"/>
      <point x="1948" y="1452"/>
      <point x="1851" y="1363"/>
      <point x="1839" y="1263" type="qcurve" smooth="yes"/>
      <point x="1789" y="938" type="line"/>
      <point x="1788" y="913" type="line"/>
      <point x="1673" y="302" type="line" smooth="yes"/>
      <point x="1588" y="-149"/>
      <point x="1139" y="-359"/>
      <point x="838" y="-359" type="qcurve"/>
    </contour>
    <contour>
      <point x="25" y="864" type="line"/>
      <point x="19" y="938" type="line"/>
      <point x="228" y="980" type="line"/>
      <point x="2007" y="978" type="line"/>
      <point x="1997" y="856" type="line"/>
      <point x="744" y="865" type="line"/>
      <point x="228" y="847" type="line"/>
    </contour>
  </outline>
</glyph>
<glyph name="breve.cyrcomb" format="2">
	<outline>
		<contour>
			<point x="237" y="1515" type="qcurve"/>
			<point x="447" y="1379" type="line"/>
			<point x="385" y="1249"/>
			<point x="177" y="1153"/>
			<point x="44" y="1153" type="qcurve" smooth="yes"/>
			<point x="-82" y="1153"/>
			<point x="-259" y="1260"/>
			<point x="-295" y="1384" type="qcurve"/>
			<point x="-90" y="1516" type="line"/>
			<point x="-80" y="1414"/>
			<point x="-5" y="1272"/>
			<point x="62" y="1272" type="qcurve" smooth="yes"/>
			<point x="129" y="1272"/>
			<point x="213" y="1423"/>
		</contour>
	</outline>
	<anchor name="_top" x="0" y="1000"/>
	<anchor name="top" x="91" y="1464"/>
</glyph>
<glyph name="breveinvertedcomb.stack" format="2">
	<outline>
		<contour>
			<point x="-130" y="1153" type="qcurve"/>
			<point x="-203" y="1206" type="line"/>
			<point x="-163" y="1304"/>
			<point x="55" y="1493"/>
			<point x="179" y="1493" type="qcurve" smooth="yes"/>
			<point x="302" y="1493"/>
			<point x="467" y="1319"/>
			<point x="470" y="1209" type="qcurve"/>
			<point x="390" y="1152" type="line"/>
			<point x="350" y="1197"/>
			<point x="255" y="1237"/>
			<point x="163" y="1237" type="qcurve" smooth="yes"/>
			<point x="67" y="1237"/>
			<point x="-82" y="1187"/>
		</contour>
	</outline>
	<anchor name="top" x="0" y="1430"/>
	<anchor name="_top" x="0" y="1052"/>
</glyph>
<glyph name="dblgravecomb-stack" format="2">
  <anchor x="0" y="1053" name="_top"/>
  <anchor x="0" y="1561" name="top"/>
  <anchor x="0" y="1052" name="_topright"/>
  <outline>
    <contour>
      <point x="-171" y="1550" type="qcurve" smooth="yes"/>
      <point x="-148" y="1584"/>
      <point x="-53" y="1616"/>
      <point x="-5" y="1596" type="qcurve" smooth="yes"/>
      <point x="38" y="1578"/>
      <point x="68" y="1500"/>
      <point x="77" y="1451" type="qcurve" smooth="yes"/>
      <point x="126" y="1172" type="line"/>
      <point x="24" y="1131" type="line"/>
      <point x="-149" y="1408" type="line" smooth="yes"/>
      <point x="-176" y="1451"/>
      <point x="-194" y="1516"/>
    </contour>
    <contour>
      <point x="112" y="1540" type="qcurve" smooth="yes"/>
      <point x="133" y="1576"/>
      <point x="231" y="1606"/>
      <point x="278" y="1585" type="qcurve" smooth="yes"/>
      <point x="315" y="1569"/>
      <point x="353" y="1490"/>
      <point x="360" y="1441" type="qcurve" smooth="yes"/>
      <point x="399" y="1162" type="line"/>
      <point x="297" y="1121" type="line"/>
      <point x="134" y="1398" type="line" smooth="yes"/>
      <point x="108" y="1442"/>
      <point x="94" y="1509"/>
    </contour>
  </outline>
</glyph>
<glyph name="descenderinverted-cy" format="2">
	<advance width="1171"/>
	<outline>
		<contour>
			<point x="293" y="-398" type="line"/>
			<point x="270" y="-307" type="line"/>
			<point x="497" y="1" type="line"/>
			<point x="586" y="1" type="line"/>
			<point x="579" y="-398" type="line"/>
		</contour>
	</outline>
</glyph>
<glyph name="dieresistonoscomb" format="2">
  <anchor x="97.0" y="1000" name="_GRKtop"/>
  <outline>
    <contour>
      <point x="-121" y="1150" type="qcurve" smooth="yes"/>
      <point x="-179" y="1150"/>
      <point x="-248" y="1218"/>
      <point x="-248" y="1274" type="qcurve" smooth="yes"/>
      <point x="-248" y="1335"/>
      <point x="-182" y="1400"/>
      <point x="-121" y="1400" type="qcurve" smooth="yes"/>
      <point x="-62" y="1400"/>
      <point x="7" y="1330"/>
      <point x="7" y="1274" type="qcurve" smooth="yes"/>
      <point x="7" y="1215"/>
      <point x="-58" y="1150"/>
    </contour>
    <contour>
      <point x="150" y="1145" type="line"/>
      <point x="58" y="1192" type="line"/>
      <point x="49" y="1587" type="line"/>
      <point x="513" y="1587" type="line"/>
      <point x="531" y="1551" type="line"/>
    </contour>
    <contour>
      <point x="483" y="1150" type="qcurve" smooth="yes"/>
      <point x="424" y="1150"/>
      <point x="355" y="1218"/>
      <point x="355" y="1274" type="qcurve" smooth="yes"/>
      <point x="355" y="1335"/>
      <point x="421" y="1400"/>
      <point x="483" y="1400" type="qcurve" smooth="yes"/>
      <point x="541" y="1400"/>
      <point x="610" y="1330"/>
      <point x="610" y="1274" type="qcurve" smooth="yes"/>
      <point x="610" y="1215"/>
      <point x="545" y="1150"/>
    </contour>
  </outline>
</glyph>
<glyph name="gravecomb-stack" format="2">
  <anchor x="206" y="1561" name="top"/>
  <anchor x="107" y="1052" name="_top"/>
  <anchor x="107" y="1052" name="_topright"/>
  <anchor x="107" y="1052" name="_topleft"/>
  <outline>
    <contour>
      <point x="29" y="1258" type="line" smooth="yes"/>
      <point x="-52" y="1302"/>
      <point x="-142" y="1397"/>
      <point x="-142" y="1457" type="qcurve" smooth="yes"/>
      <point x="-142" y="1519"/>
      <point x="-50" y="1601"/>
      <point x="7" y="1601" type="qcurve" smooth="yes"/>
      <point x="81" y="1601"/>
      <point x="162" y="1483"/>
      <point x="199" y="1408" type="qcurve" smooth="yes"/>
      <point x="296" y="1211" type="line"/>
      <point x="227" y="1150" type="line"/>
    </contour>
  </outline>
</glyph>
<glyph name="horizontalbarlc" format="2">
	<advance width="1267"/>
	<outline>
		<contour>
			<point x="596" y="656" type="line"/>
			<point x="49" y="656" type="line"/>
			<point x="74" y="782" type="line"/>
			<point x="640" y="782" type="line"/>
			<point x="1171" y="782" type="line"/>
			<point x="1147" y="656" type="line"/>
		</contour>
	</outline>
</glyph>
<glyph name="macroncomb-stack" format="2">
	<outline>
		<contour>
			<point x="-168" y="1156" type="line"/>
			<point x="-121" y="1386" type="line"/>
			<point x="471" y="1386" type="line"/>
			<point x="424" y="1156" type="line"/>
		</contour>
	</outline>
	<anchor name="_top" x="108" y="1053"/>
	<anchor name="top" x="206" y="1561"/>
</glyph>
<glyph name="tonoscomb" format="2">
  <anchor x="97" y="1000" name="_GRKtop"/>
  <outline>
    <contour>
      <point x="172" y="1145" type="line"/>
      <point x="80" y="1191" type="line"/>
      <point x="161" y="1587" type="line"/>
      <point x="625" y="1587" type="line"/>
      <point x="643" y="1551" type="line"/>
    </contour>
  </outline>
</glyph>
<glyph name="ve.bgr" format="2">
	<advance width="1894"/>
	<outline>
		<contour>
			<point x="53.5333333333" y="592" type="qcurve" smooth="yes"/>
			<point x="141.5333333333" y="1057" type="line" smooth="yes"/>
			<point x="193.5333333333" y="1333"/>
			<point x="674.5333333333" y="1582"/>
			<point x="1065.5333333333" y="1582" type="qcurve" smooth="yes"/>
			<point x="1452.5333333333" y="1582"/>
			<point x="1849.5333333333" y="1323"/>
			<point x="1807.5333333333" y="1119" type="qcurve"/>
			<point x="1784.5333333333" y="1006"/>
			<point x="1565.5333333333" y="860"/>
			<point x="1317.5333333333" y="810" type="qcurve"/>
			<point x="1316.5333333333" y="806" type="line"/>
			<point x="1526.5333333333" y="773"/>
			<point x="1750.5333333333" y="552"/>
			<point x="1717.5333333333" y="368" type="qcurve" smooth="yes"/>
			<point x="1688.5333333333" y="203"/>
			<point x="1283.5333333333" y="-29"/>
			<point x="790.5333333333" y="-23" type="qcurve" smooth="yes"/>
			<point x="332.5333333333" y="-21"/>
			<point x="-8.4666666667" y="267"/>
		</contour>
		<contour>
			<point x="688.5333333333" y="804" type="line"/>
			<point x="618.5333333333" y="438" type="line" smooth="yes"/>
			<point x="584.5333333333" y="262"/>
			<point x="679.5333333333" y="87"/>
			<point x="797.5333333333" y="87" type="qcurve" smooth="yes"/>
			<point x="932.5333333333" y="87"/>
			<point x="1100.5333333333" y="245"/>
			<point x="1128.5333333333" y="416" type="qcurve" smooth="yes"/>
			<point x="1156.5333333333" y="585"/>
			<point x="1029.5333333333" y="760"/>
			<point x="884.5333333333" y="760" type="qcurve" smooth="yes"/>
			<point x="597.5333333333" y="760" type="line"/>
			<point x="616.5333333333" y="862" type="line"/>
			<point x="894.5333333333" y="862" type="line" smooth="yes"/>
			<point x="1019.5333333333" y="862"/>
			<point x="1193.5333333333" y="1027"/>
			<point x="1220.5333333333" y="1167" type="qcurve" smooth="yes"/>
			<point x="1247.7919727691" y="1308.341093371"/>
			<point x="1153.5333333333" y="1472"/>
			<point x="1051.5333333333" y="1472" type="qcurve" smooth="yes"/>
			<point x="933.5333333333" y="1472"/>
			<point x="785.5333333333" y="1326"/>
			<point x="751.5333333333" y="1142" type="qcurve" smooth="yes"/>
		</contour>
	</outline>
</glyph>
<glyph name="yu-i" format="2">
	<advance width="1916"/>
	<outline>
		<contour>
			<point x="34" y="56" type="line"/>
			<point x="137" y="527" type="line"/>
			<point x="189" y="820" type="line"/>
			<point x="47" y="816" type="line"/>
			<point x="46" y="915" type="line"/>
			<point x="679" y="1003" type="line"/>
			<point x="724" y="1001" type="line"/>
			<point x="782" y="930" type="line"/>
			<point x="704" y="528" type="line"/>
			<point x="620" y="83" type="line"/>
			<point x="651" y="0" type="line"/>
			<point x="76" y="-23" type="line"/>
		</contour>
	</outline>
	<anchor name="yu_dash" x="626" y="498"/>
</glyph>
<glyph name="yu-l.bgr" format="2">
	<advance width="860"/>
	<outline>
		<contour>
			<point x="56" y="-23" type="line"/>
			<point x="14" y="56" type="line"/>
			<point x="117" y="527" type="line"/>
			<point x="275" y="1404" type="line"/>
			<point x="171" y="1500" type="line"/>
			<point x="199" y="1572" type="line"/>
			<point x="780" y="1602" type="line"/>
			<point x="867" y="1532" type="line"/>
			<point x="684" y="588" type="line"/>
			<point x="599" y="87" type="line"/>
			<point x="630" y="0" type="line"/>
		</contour>
	</outline>
	<anchor name="yu_dash" x="593" y="498"/>
</glyph>
<glyph name="ze.bgr" format="2">
  <advance width="1223"/>
  <outline>
    <contour>
      <point x="989" y="2" type="qcurve" smooth="yes"/>
      <point x="932" y="-237"/>
      <point x="427" y="-464"/>
      <point x="-2" y="-464" type="qcurve"/>
      <point x="-170" y="-424" type="line"/>
      <point x="-168" y="-348" type="line"/>
      <point x="16" y="-337" type="line" smooth="yes"/>
      <point x="152" y="-329"/>
      <point x="383" y="-131"/>
      <point x="417" y="27" type="qcurve" smooth="yes"/>
      <point x="449" y="177"/>
      <point x="353" y="318"/>
      <point x="200" y="306" type="qcurve" smooth="yes"/>
      <point x="88" y="297" type="line"/>
      <point x="111" y="406" type="line"/>
      <point x="211" y="412" type="line" smooth="yes"/>
      <point x="338.7075333899" y="419.6624520034"/>
      <point x="468.0116781804" y="556.0614641076"/>
      <point x="487" y="656" type="qcurve" smooth="yes"/>
      <point x="504.98345606500004" y="761.902574605"/>
      <point x="425.1333333333" y="881"/>
      <point x="342" y="881" type="qcurve" smooth="yes"/>
      <point x="244.8172757475" y="881"/>
      <point x="106" y="799"/>
      <point x="58" y="732" type="qcurve"/>
      <point x="0" y="796" type="line"/>
      <point x="0" y="825" type="line"/>
      <point x="57.1368887167" y="904.7946204491"/>
      <point x="313" y="1020"/>
      <point x="544" y="1018" type="qcurve"/>
      <point x="830" y="1020"/>
      <point x="1103" y="821"/>
      <point x="1070" y="667" type="qcurve" smooth="yes"/>
      <point x="1050" y="542"/>
      <point x="833" y="411"/>
      <point x="615" y="374" type="qcurve"/>
      <point x="614" y="370" type="line"/>
      <point x="843" y="333"/>
      <point x="1021" y="143"/>
    </contour>
  </outline>
</glyph>
